<?xml version="1.0" encoding="UTF-8" standalone="no"?>
<!-- Created with Inkscape (http://www.inkscape.org/) -->

<svg
   xmlns:dc="http://purl.org/dc/elements/1.1/"
   xmlns:cc="http://creativecommons.org/ns#"
   xmlns:rdf="http://www.w3.org/1999/02/22-rdf-syntax-ns#"
   xmlns:svg="http://www.w3.org/2000/svg"
   xmlns="http://www.w3.org/2000/svg"
   xmlns:sodipodi="http://sodipodi.sourceforge.net/DTD/sodipodi-0.dtd"
   xmlns:inkscape="http://www.inkscape.org/namespaces/inkscape"
   width="64"
   height="64"
   id="svg2"
   version="1.1"
   inkscape:version="0.48.0 r9654"
   sodipodi:docname="chromosome.svg"
   inkscape:export-filename="/Users/eric/Desktop/Programmation/freemedforms/global_resources/pixmap/svg/chromosome-32.png"
   inkscape:export-xdpi="45"
   inkscape:export-ydpi="45">
  <defs
     id="defs4" />
  <sodipodi:namedview
     id="base"
     pagecolor="#ffffff"
     bordercolor="#666666"
     borderopacity="1.0"
     inkscape:pageopacity="0.0"
     inkscape:pageshadow="2"
     inkscape:zoom="3.959798"
     inkscape:cx="-36.33318"
     inkscape:cy="32.158654"
     inkscape:document-units="px"
     inkscape:current-layer="layer1"
     showgrid="false"
     inkscape:window-width="1276"
     inkscape:window-height="710"
     inkscape:window-x="0"
     inkscape:window-y="0"
     inkscape:window-maximized="0" />
  <metadata
     id="metadata7">
    <rdf:RDF>
      <cc:Work
         rdf:about="">
        <dc:format>image/svg+xml</dc:format>
        <dc:type
           rdf:resource="http://purl.org/dc/dcmitype/StillImage" />
        <dc:title></dc:title>
        <cc:license
           rdf:resource="" />
      </cc:Work>
      <cc:License
         rdf:about="http://creativecommons.org/licenses/publicdomain/">
        <cc:permits
           rdf:resource="http://creativecommons.org/ns#Reproduction" />
        <cc:permits
           rdf:resource="http://creativecommons.org/ns#Distribution" />
        <cc:permits
           rdf:resource="http://creativecommons.org/ns#DerivativeWorks" />
      </cc:License>
    </rdf:RDF>
  </metadata>
  <g
     inkscape:label="Calque 1"
     inkscape:groupmode="layer"
     id="layer1"
     transform="translate(0,-988.36218)">
    <path
       sodipodi:type="arc"
       style="fill:#999999;fill-opacity:1;stroke:#c0c0bd;stroke-width:1;stroke-linecap:round;stroke-linejoin:round;stroke-miterlimit:4;stroke-opacity:1;stroke-dasharray:none;stroke-dashoffset:0"
       id="path2985"
       sodipodi:cx="15.026019"
       sodipodi:cy="17.785521"
       sodipodi:rx="3.9143412"
       sodipodi:ry="13.889598"
       d="m 18.94036,17.785521 c 0,7.671013 -1.75251,13.889597 -3.914341,13.889597 -2.161831,0 -3.914341,-6.218584 -3.914341,-13.889597 0,-7.671014 1.75251,-13.8895983 3.914341,-13.8895983 2.141068,0 3.884858,6.1040447 3.913979,13.7006783"
       transform="matrix(1.3481818,-0.4205076,0.56571059,0.90953194,-7.1973419,994.77452)"
       sodipodi:start="0"
       sodipodi:end="6.2695834"
       sodipodi:open="true" />
    <path
       sodipodi:open="true"
       sodipodi:end="6.2695834"
       sodipodi:start="0"
       transform="matrix(1.3774408,0.338933,-0.4962318,0.94081051,29.899219,982.55431)"
       d="m 18.94036,17.785521 c 0,7.671013 -1.75251,13.889597 -3.914341,13.889597 -2.161831,0 -3.914341,-6.218584 -3.914341,-13.889597 0,-7.671014 1.75251,-13.8895983 3.914341,-13.8895983 2.141068,0 3.884858,6.1040447 3.913979,13.7006783"
       sodipodi:ry="13.889598"
       sodipodi:rx="3.9143412"
       sodipodi:cy="17.785521"
       sodipodi:cx="15.026019"
       id="path3799"
       style="fill:#999999;fill-opacity:1;stroke:#c0c0bd;stroke-width:1;stroke-linecap:round;stroke-linejoin:round;stroke-miterlimit:4;stroke-opacity:1;stroke-dasharray:none;stroke-dashoffset:0"
       sodipodi:type="arc" />
    <path
       sodipodi:type="arc"
       style="fill:#999999;fill-opacity:1;stroke:#c0c0bd;stroke-width:1;stroke-linecap:round;stroke-linejoin:round;stroke-miterlimit:4;stroke-opacity:1;stroke-dasharray:none;stroke-dashoffset:0"
       id="path3801"
       sodipodi:cx="15.026019"
       sodipodi:cy="17.785521"
       sodipodi:rx="3.9143412"
       sodipodi:ry="13.889598"
       d="m 18.94036,17.785521 c 0,7.671013 -1.75251,13.889597 -3.914341,13.889597 -2.161831,0 -3.914341,-6.218584 -3.914341,-13.889597 0,-7.671014 1.75251,-13.8895983 3.914341,-13.8895983 2.141068,0 3.884858,6.1040447 3.913979,13.7006783"
       transform="matrix(1.3130922,0.5401274,-0.65247519,1.1236849,14.335951,1004.6334)"
       sodipodi:start="0"
       sodipodi:end="6.2695834"
       sodipodi:open="true" />
    <path
       sodipodi:open="true"
       sodipodi:end="6.2695834"
       sodipodi:start="0"
       transform="matrix(1.2727006,-0.60608795,0.73127032,1.1054353,12.07057,1022.1024)"
       d="m 18.94036,17.785521 c 0,7.671013 -1.75251,13.889597 -3.914341,13.889597 -2.161831,0 -3.914341,-6.218584 -3.914341,-13.889597 0,-7.671014 1.75251,-13.8895983 3.914341,-13.8895983 2.141068,0 3.884858,6.1040447 3.913979,13.7006783"
       sodipodi:ry="13.889598"
       sodipodi:rx="3.9143412"
       sodipodi:cy="17.785521"
       sodipodi:cx="15.026019"
       id="path3803"
       style="fill:#999999;fill-opacity:1;stroke:#c0c0bd;stroke-width:1;stroke-linecap:round;stroke-linejoin:round;stroke-miterlimit:4;stroke-opacity:1;stroke-dasharray:none;stroke-dashoffset:0"
       sodipodi:type="arc" />
    <path
       sodipodi:type="arc"
       style="fill:#999999;fill-opacity:1;stroke:#c0c0bd;stroke-width:1;stroke-linecap:round;stroke-linejoin:round;stroke-miterlimit:4;stroke-opacity:1;stroke-dasharray:none;stroke-dashoffset:0"
       id="path3805"
       sodipodi:cx="33.082497"
       sodipodi:cy="28.518393"
       sodipodi:rx="4.0406103"
       sodipodi:ry="4.1668792"
       d="m 37.123107,28.518393 c 0,2.301303 -1.809043,4.166879 -4.04061,4.166879 -2.231568,0 -4.040611,-1.865576 -4.040611,-4.166879 0,-2.301304 1.809043,-4.16688 4.040611,-4.16688 2.210134,0 4.010175,1.831214 4.040236,4.110204"
       transform="matrix(1.21,0,0,1,-7.0939584,988.36218)"
       sodipodi:start="0"
       sodipodi:end="6.2695834"
       sodipodi:open="true" />
  </g>
</svg>
