<?xml version="1.0" encoding="UTF-8" standalone="no"?>
<!-- Generator: Adobe Illustrator 15.0.0, SVG Export Plug-In . SVG Version: 6.00 Build 0)  -->

<svg
   xmlns:dc="http://purl.org/dc/elements/1.1/"
   xmlns:cc="http://creativecommons.org/ns#"
   xmlns:rdf="http://www.w3.org/1999/02/22-rdf-syntax-ns#"
   xmlns:svg="http://www.w3.org/2000/svg"
   xmlns="http://www.w3.org/2000/svg"
   xmlns:xlink="http://www.w3.org/1999/xlink"
   xmlns:sodipodi="http://sodipodi.sourceforge.net/DTD/sodipodi-0.dtd"
   xmlns:inkscape="http://www.inkscape.org/namespaces/inkscape"
   version="1.0"
   id="Layer_1"
   x="0px"
   y="0px"
   width="550.35675"
   height="486.11499"
   viewBox="0 0 550.35676 486.115"
   enable-background="new 0 0 566.93 566.93"
   xml:space="preserve"
   inkscape:version="0.47 r22583"
   sodipodi:docname="ZZ.svg"><metadata
   id="metadata23"><rdf:RDF><cc:Work
       rdf:about=""><dc:format>image/svg+xml</dc:format><dc:type
         rdf:resource="http://purl.org/dc/dcmitype/StillImage" /></cc:Work></rdf:RDF></metadata><defs
   id="defs21"><inkscape:perspective
     sodipodi:type="inkscape:persp3d"
     inkscape:vp_x="0 : 283.465 : 1"
     inkscape:vp_y="0 : 1000 : 0"
     inkscape:vp_z="566.92999 : 283.465 : 1"
     inkscape:persp3d-origin="283.465 : 188.97666 : 1"
     id="perspective25" /></defs><sodipodi:namedview
   pagecolor="#ffffff"
   bordercolor="#666666"
   borderopacity="1"
   objecttolerance="10"
   gridtolerance="10"
   guidetolerance="10"
   inkscape:pageopacity="0"
   inkscape:pageshadow="2"
   inkscape:window-width="1280"
   inkscape:window-height="1004"
   id="namedview19"
   showgrid="false"
   inkscape:zoom="0.41627715"
   inkscape:cx="275.272"
   inkscape:cy="251.753"
   inkscape:window-x="-8"
   inkscape:window-y="-8"
   inkscape:window-maximized="1"
   inkscape:current-layer="Layer_1" />
<g
   id="g3"
   transform="translate(-8.193,-49.103)">
	<g
   id="g5">
		<defs
   id="defs7">
			<polyline
   id="SVGID_1_"
   points="8.193,49.103 8.193,535.218 558.551,535.218 558.551,49.103    " />
		</defs>
		<clipPath
   id="SVGID_2_">
			<use
   xlink:href="#SVGID_1_"
   overflow="visible"
   id="use11"
   style="overflow:visible"
   x="0"
   y="0"
   width="566.92999"
   height="566.92999" />
		</clipPath>
		<polyline
   clip-path="url(#SVGID_2_)"
   clip-rule="evenodd"
   points="125.337,499.582     41.631,499.582 284.395,78.918 525.582,499.582 125.337,499.582   "
   id="polyline13"
   style="fill:#ffffff;fill-rule:evenodd" />
		<path
   clip-path="url(#SVGID_2_)"
   clip-rule="evenodd"
   d="m 522.343,535.218 c 12.954,0 24.833,-6.946 31.325,-18.22 6.509,-11.276 6.509,-25.169 0,-36.462 L 314.966,67.275 c -6.51,-11.241 -18.522,-18.172 -31.542,-18.172 -13.021,0 -25.069,6.981 -31.578,18.289 L 13.059,480.422 c -6.494,11.241 -6.494,25.148 0,36.576 6.475,11.273 18.523,18.22 31.643,18.22 H 522.343 M 65.708,486.596 H 501.036 L 283.424,109.79 65.708,486.596 z"
   id="path15"
   style="fill:#e4051e;fill-rule:evenodd" />
	</g>
	<path
   clip-rule="evenodd"
   d="m 249.765,408.608 c 0,25.168 -6.644,52.013 -7.381,54.043 -0.638,2.031 -2.332,2.031 -3.875,1.527 -1.377,-0.438 -10.506,-4.446 -12.668,-5.219 -2.165,-0.653 -2.014,-2.937 -2.165,-4.044 l -5.856,-30.116 h 4.799 c -2.952,-17.434 -8.657,-42.147 -8.657,-55.737 0,-13.59 4.161,-27.331 4.764,-28.875 0.487,-1.51 3.121,-6.477 6.813,-2.635 4.481,4.799 10.335,8.677 15.906,10.051 1.244,0.303 2.617,0.771 2.617,0.771 0,0 0,5.705 0,8.054 -0.002,13.422 5.569,27.332 5.703,52.18 m 54.362,49.095 c 0,0 -12.954,-70.57 -13.558,-73.523 -0.638,-3.071 -2.48,-9.412 -2.349,-21.594 0,-30.283 16.678,-51.256 17.147,-51.895 0.62,-0.604 3.088,-3.54 6.157,0.787 4.044,5.387 14.682,19.314 18.539,23.307 3.894,3.893 11.748,11.576 23.776,21.159 -2.769,2.634 -2.13,6.191 -2.13,6.191 1.844,-0.171 3.688,-0.32 5.536,-0.64 0,0 -0.135,-1.711 0.638,-2.918 0.906,1.072 5.233,4.161 8.657,4.613 l -17.92,105.938 4.765,0.923 17.75,-106.223 c 3.121,-0.638 4.936,-2.919 4.936,-4.813 0,-1.814 -0.437,-3.543 -3.071,-5.404 -2.616,-1.848 -18.204,-13.272 -29.798,-28.406 -8.173,-10.52 -17.45,-25.484 -23.942,-51.256 -1.073,-3.86 1.71,-5.102 2.468,-5.102 0.953,0 2.937,0.469 4.479,0.469 13.758,0 18.555,-11.576 18.555,-17.145 0,-5.707 -5.116,-20.067 -20.568,-20.067 -14.195,0 -19.749,13.59 -19.749,20.216 0,4.026 -1.544,4.799 -3.54,5.722 -4.799,2.766 -16.661,7.247 -31.81,24.697 -18.691,21.946 -21.795,47.416 -21.795,47.416 0,0 -0.906,-0.621 -2.468,-1.073 -8.336,-2.65 -14.042,-12.988 -14.042,-19.935 0,-7.112 7.565,-24.394 7.868,-25.166 0.168,-0.604 1.241,-1.845 3.858,-2.148 13.456,-1.41 16.847,-15.603 16.847,-19.764 0,-4.33 -3.391,-19.464 -19.933,-19.464 -16.509,0 -20.067,15.437 -20.067,19.598 0,4.328 0.772,5.872 1.075,8.037 0.151,1.561 -1.847,3.237 -3.558,4.933 -31.04,27.497 -60.521,78.154 -60.521,149.627 h 14.347 l -2.919,45.419 h 26.544 c 4.95,0 4.176,-3.86 1.708,-4.782 -3.856,-1.526 -11.44,-4.815 -12.647,-5.253 -1.244,-0.451 -2.485,-1.877 -1.41,-5.097 l 8.036,-30.287 h 10.033 l 15.151,45.419 h 60.201 c 1.41,0 3.104,-0.772 3.558,-2.483 0.636,-1.678 -1.696,-2.935 -2.602,-3.053 -0.956,-0.336 -7.734,-3.272 -8.508,-3.725 -0.77,-0.472 -2.163,-1.544 -1.71,-3.691 0.469,-2.18 4.781,-23.188 4.781,-47.433 3.104,7.398 7.299,18.54 10.504,29.176 3.271,10.689 6.191,25.337 6.964,28.426 0.603,3.103 3.222,2.783 3.222,2.783 0,0 24.863,0 25.938,0 1.241,0 2.952,-1.09 2.952,-2.952 0,-1.83 -2.147,-2.584 -2.147,-2.584 0,0 -10.67,-3.575 -12.366,-4.062 -1.676,-0.301 -1.545,-1.373 -1.862,-2.918 z"
   id="path17"
   style="fill:#1b1719;fill-rule:evenodd" />
</g>
</svg>