<?xml version="1.0" encoding="UTF-8" standalone="no"?>
<!-- Created with Inkscape (http://www.inkscape.org/) -->

<svg
   xmlns:dc="http://purl.org/dc/elements/1.1/"
   xmlns:cc="http://creativecommons.org/ns#"
   xmlns:rdf="http://www.w3.org/1999/02/22-rdf-syntax-ns#"
   xmlns:svg="http://www.w3.org/2000/svg"
   xmlns="http://www.w3.org/2000/svg"
   xmlns:sodipodi="http://sodipodi.sourceforge.net/DTD/sodipodi-0.dtd"
   xmlns:inkscape="http://www.inkscape.org/namespaces/inkscape"
   width="48px"
   height="48px"
   id="svg2985"
   version="1.1"
   inkscape:version="0.48.3.1 r9886"
   sodipodi:docname="genetic.svg"
   inkscape:export-filename="/home/hoel/icones/genetic16.png"
   inkscape:export-xdpi="30"
   inkscape:export-ydpi="30">
  <title
     id="title3925">genetic</title>
  <defs
     id="defs2987" />
  <sodipodi:namedview
     id="base"
     pagecolor="#ffffff"
     bordercolor="#666666"
     borderopacity="1.0"
     inkscape:pageopacity="0.0"
     inkscape:pageshadow="2"
     inkscape:zoom="11.313709"
     inkscape:cx="0.72869087"
     inkscape:cy="20.473563"
     inkscape:current-layer="layer1"
     showgrid="true"
     inkscape:grid-bbox="true"
     inkscape:document-units="px"
     inkscape:window-width="1857"
     inkscape:window-height="1056"
     inkscape:window-x="63"
     inkscape:window-y="24"
     inkscape:window-maximized="1" />
  <metadata
     id="metadata2990">
    <rdf:RDF>
      <cc:Work
         rdf:about="">
        <dc:format>image/svg+xml</dc:format>
        <dc:type
           rdf:resource="http://purl.org/dc/dcmitype/StillImage" />
        <dc:title>genetic</dc:title>
        <cc:license
           rdf:resource="http://creativecommons.org/licenses/by/3.0/" />
        <dc:creator>
          <cc:Agent>
            <dc:title>Hoel CHARBONNEL</dc:title>
          </cc:Agent>
        </dc:creator>
      </cc:Work>
      <cc:License
         rdf:about="http://creativecommons.org/licenses/by/3.0/">
        <cc:permits
           rdf:resource="http://creativecommons.org/ns#Reproduction" />
        <cc:permits
           rdf:resource="http://creativecommons.org/ns#Distribution" />
        <cc:requires
           rdf:resource="http://creativecommons.org/ns#Notice" />
        <cc:requires
           rdf:resource="http://creativecommons.org/ns#Attribution" />
        <cc:permits
           rdf:resource="http://creativecommons.org/ns#DerivativeWorks" />
      </cc:License>
    </rdf:RDF>
  </metadata>
  <g
     id="layer1"
     inkscape:label="Layer 1"
     inkscape:groupmode="layer">
    <path
       style="fill:#2e3436;stroke:#2e3436;stroke-width:1px;stroke-linecap:butt;stroke-linejoin:miter;stroke-opacity:1"
       d="M 32.857143,16.419643 28.879464,14.049107"
       id="path3844"
       inkscape:connector-curvature="0"
       sodipodi:nodetypes="cc" />
    <path
       style="fill:none;stroke:#2e3436;stroke-width:1px;stroke-linecap:butt;stroke-linejoin:miter;stroke-opacity:1"
       d="M 30.264216,27.189245 19.469573,20.519603"
       id="path3848"
       inkscape:connector-curvature="0"
       sodipodi:nodetypes="cc" />
    <path
       style="fill:none;stroke:#2e3436;stroke-width:1px;stroke-linecap:butt;stroke-linejoin:miter;stroke-opacity:1"
       d="M 31.76207,2.3504576 42.075018,10.904927"
       id="path3840"
       inkscape:connector-curvature="0"
       sodipodi:nodetypes="cc" />
    <path
       style="fill:none;stroke:#2e3436;stroke-width:1px;stroke-linecap:butt;stroke-linejoin:miter;stroke-opacity:1"
       d="M 40.050879,14.605348 27.928571,6.7857143"
       id="path3842"
       inkscape:connector-curvature="0"
       sodipodi:nodetypes="cc" />
    <path
       style="fill:#2e3436;stroke:#2e3436;stroke-width:1px;stroke-linecap:butt;stroke-linejoin:miter;stroke-opacity:1"
       d="M 29.736383,20.626284 26.56674,19.300391"
       id="path3846"
       inkscape:connector-curvature="0"
       sodipodi:nodetypes="cc" />
    <path
       style="fill:none;stroke:#2e3436;stroke-width:1px;stroke-linecap:butt;stroke-linejoin:miter;stroke-opacity:1"
       d="m 16.714286,22.857143 11.03392,8.600211"
       id="path3850"
       inkscape:connector-curvature="0"
       sodipodi:nodetypes="cc" />
    <path
       style="fill:none;stroke:#2e3436;stroke-width:1px;stroke-linecap:butt;stroke-linejoin:miter;stroke-opacity:1"
       d="M 19.807811,41.142857 9.2384245,37.031946"
       id="path3854"
       inkscape:connector-curvature="0"
       sodipodi:nodetypes="cc" />
    <path
       style="fill:none;stroke:#2e3436;stroke-width:1px;stroke-linecap:butt;stroke-linejoin:miter;stroke-opacity:1"
       d="m 6.5714286,37.928571 9.8794644,8.783483"
       id="path3856"
       inkscape:connector-curvature="0"
       sodipodi:nodetypes="cc" />
    <path
       style="fill:#3465a4;fill-opacity:1;fill-rule:evenodd;stroke:none"
       d="m 27.491534,16.660549 c -0.436154,-2.173428 -0.632507,-4.437682 -0.536002,-6.18093 0.136462,-2.4650253 0.81935,-4.4445338 2.1245,-6.1583553 2.090198,-2.7446856 4.203093,-4.32661089 7.147889,-5.3516272 0.769172,-0.2677311 2.352943,-0.6732043 2.385207,-0.6336824 0.0727,0.089055 0.534612,1.98784006 0.484729,2.03188278 -0.03427,0.0302623 -0.712184,0.15009512 -1.006827,0.19877643 -1.468593,0.24264271 -3.531769,0.82148099 -4.838202,1.35739089 -0.402083,0.1649378 -0.760048,0.281971 -0.795479,0.2600739 -0.03543,-0.021897 -0.10446,0.00844 -0.153401,0.067405 -0.04894,0.05897 -0.406785,0.3154442 -0.795209,0.5699434 C 30.499432,3.482733 29.965745,4.0510329 29.522441,4.9365481 29.324708,5.3315272 29.093985,5.8850276 29.009725,6.166549 28.925465,6.4480712 28.847501,6.6892998 28.836475,6.702614 28.825448,6.7159273 28.693964,6.6436059 28.54429,6.5418995 28.394615,6.4401923 28.248326,6.356978 28.219204,6.356978 c -0.06904,0 -0.556746,0.72431 -0.556746,0.8268479 0,0.043314 0.216965,0.2149871 0.482143,0.3814943 l 0.482143,0.30274 0.004,1.6194593 c 0.0041,1.6463345 0.04533,2.0598475 0.394266,3.9521585 0.1152,0.624734 -0.400125,1.027273 -0.400125,1.027273 0,0 0.383675,0.131302 0.520275,0.235938 0.118268,0.0906 0.199788,0.323792 0.347409,0.993783 0.106084,0.481475 0.175241,0.893047 0.153683,0.914605 -0.03242,0.03242 -1.755443,0.23959 -2.031692,0.244281 -0.04599,7.79e-4 -0.101349,-0.08697 -0.123026,-0.195009 z"
       id="path3866"
       inkscape:connector-curvature="0"
       sodipodi:nodetypes="csssscssscssscssssccsccsscc" />
    <path
       style="fill:#3465a4;fill-opacity:1;fill-rule:evenodd;stroke:none"
       d="m 38.919061,0.34404595 c -0.06545,-0.21706964 -0.396487,-2.01385045 -0.374986,-2.03535085 0.0392,-0.039201 1.69986,-0.3941543 1.723993,-0.3684907 0.01237,0.013154 0.149577,0.5135399 0.304906,1.11196855 l 0.282417,1.088052 -0.221466,0.0362806 c -0.121807,0.0199544 -0.494681,0.0702758 -0.828609,0.1118255 -0.333929,0.0415497 -0.663552,0.0922806 -0.732495,0.11273536 -0.06934,0.0205739 -0.138044,-0.004903 -0.15376,-0.0570204 z"
       id="path3868"
       inkscape:connector-curvature="0" />
    <path
       style="fill:#3465a4;fill-opacity:1;fill-rule:evenodd;stroke:none"
       d="m 40.776908,-0.8708484 c -0.146255,-0.5621954 -0.281058,-1.0747666 -0.299561,-1.1390469 -0.02867,-0.099607 0.198963,-0.1619193 1.540852,-0.4217869 0.865973,-0.1677024 1.593956,-0.2854526 1.617742,-0.2616672 0.02378,0.023785 0.01971,0.6234109 -0.0091,1.3325011 l -0.0523,1.2892549 -0.188208,6.1428e-4 c -0.264481,8.5857e-4 -1.778778,0.13261486 -2.08731,0.18161322 l -0.256244,0.0406911 -0.265919,-1.02217364 z"
       id="path3870"
       inkscape:connector-curvature="0" />
    <path
       style="fill:#3465a4;fill-opacity:1;fill-rule:evenodd;stroke:none"
       d="M 41.635978,9.8469502 C 41.169628,9.4575095 40.675434,9.0460337 40.537769,8.9325587 40.300921,8.737328 40.278337,8.6788909 40.117542,7.8451809 40.024082,7.3605977 39.835245,6.144478 39.697904,5.1426923 39.468094,3.4664142 39.066095,0.97881254 38.981082,0.70696562 c -0.02887,-0.0923079 0.0576,-0.12971313 0.449395,-0.19441685 0.266825,-0.0440653 0.710082,-0.1010252 0.985015,-0.12657753 l 0.499879,-0.0464588 0.513537,2.09801856 c 0.852366,3.4822765 1.116582,5.2169399 1.077183,7.0720406 l -0.0222,1.0454514 z"
       id="path3872"
       inkscape:connector-curvature="0"
       sodipodi:nodetypes="ssssssscsscs" />
    <path
       style="fill:#3465a4;fill-opacity:1;fill-rule:evenodd;stroke:none"
       d="m 18.023997,33.517692 c -0.09162,-0.383035 -0.368557,-1.3875 -0.615418,-2.232143 -0.838081,-2.867515 -1.193847,-4.391715 -1.427273,-6.114838 l -0.117157,-0.864839 0.07297,-0.670137 0.354222,-0.412326 0.759485,0.572015 0.736048,0.572015 0.04469,0.380273 c 0.02458,0.20915 0.238903,1.154966 0.476271,2.101813 0.237367,0.946847 0.527152,2.292121 0.643966,2.989497 0.116814,0.697375 0.342993,1.921782 0.50262,2.720904 0.159627,0.799121 0.275131,1.468047 0.256677,1.486501 -0.04999,0.04999 -0.898683,0.164609 -1.231015,0.166257 l -0.289512,0.0014 -0.16658,-0.696429 z"
       id="path3878"
       inkscape:connector-curvature="0"
       sodipodi:nodetypes="csscccccssssscccc" />
    <path
       style="fill:#3465a4;fill-opacity:1;fill-rule:evenodd;stroke:none"
       d="m 12.983887,49.567312 c -0.510714,-0.02815 -1.089286,-0.05709 -1.285714,-0.06431 l -0.357143,-0.01312 0.464286,-0.175372 c 3.183778,-1.202596 4.873259,-2.484097 5.711139,-4.332003 0.401255,-0.884948 0.759337,-2.229123 0.892143,-3.348945 l 0.04767,-0.401988 0.549522,0.2053 c 0.302238,0.112915 0.569323,0.205417 0.593523,0.205559 0.07018,4.15e-4 0.363755,-0.85789 0.326571,-0.954789 -0.01852,-0.04825 -0.335313,-0.191712 -0.70399,-0.318794 l -0.670323,-0.231058 0.02259,-1.443979 c 0.01242,-0.794188 0.02934,-1.523372 0.03758,-1.620409 0.01427,-0.167889 0.05199,-0.181842 0.779168,-0.288219 l 0.764173,-0.11179 0.04728,0.279842 c 0.026,0.153913 0.04726,0.83004 0.04723,1.502505 -6.2e-5,1.690425 -0.216039,2.747908 -0.869907,4.259306 -0.418814,0.968077 -1.152045,2.262221 -1.665602,2.939769 -1.076352,1.420057 -3.471043,3.999727 -3.690692,3.97578 -0.06102,-0.0067 -0.5288,-0.03513 -1.039514,-0.06329 z"
       id="path3882"
       inkscape:connector-curvature="0" />
    <path
       style="fill:#3465a4;fill-opacity:1;fill-rule:evenodd;stroke:none"
       d="M 8.5959902,48.995513 C 8.4290682,48.114968 7.8348539,45.32981 7.4911315,43.8169 7.241704,42.719033 7.1242107,42.333223 6.8630258,41.7544 6.3075447,40.523375 5.9509449,39.40347 5.8387112,38.537529 c -0.07997,-0.617011 0.3155234,-1.412762 1.0990725,-2.211381 0.5730044,-0.584024 0.9089258,-0.761026 1.8381272,-0.968538 1.142005,-0.255035 2.1545721,-0.361175 6.8741861,-0.720567 7.19712,-0.548051 10.478381,-1.441212 12.172603,-3.313389 0.69295,-0.765734 1.196937,-2.102302 1.276838,-3.386162 0.0207,-0.332693 0.05818,-0.638119 0.08327,-0.678724 0.03205,-0.05186 0.150559,-0.0067 0.398296,0.151772 0.193967,0.124079 0.387277,0.22506 0.429579,0.224401 0.09687,-0.0015 0.56459,-0.792611 0.515536,-0.871982 -0.01995,-0.03228 -0.344772,-0.244566 -0.721824,-0.471745 -0.377054,-0.227179 -0.685551,-0.436403 -0.685551,-0.464942 0,-0.504156 -0.238288,-2.186876 -0.538609,-3.803497 -0.123336,-0.663912 -0.207976,-1.223385 -0.188089,-1.243272 0.01989,-0.01989 0.280792,0.05296 0.579787,0.161879 0.298997,0.108921 0.563903,0.176206 0.588682,0.149522 0.02478,-0.02668 0.116816,-0.249901 0.204527,-0.49604 l 0.159474,-0.447524 -0.668511,-0.238214 -0.668511,-0.238213 0.268159,-0.04581 c 0.147487,-0.0252 0.540166,-0.05411 0.87262,-0.06426 l 0.604462,-0.01845 0.17108,0.875 c 0.312455,1.598071 0.392177,2.390677 0.389754,3.875 -0.0017,1.029005 -0.0296,1.524406 -0.110947,1.96875 -0.459779,2.511359 -1.404791,4.251198 -3.378764,6.220562 -1.989408,1.984763 -4.225227,3.292613 -6.628864,3.877576 -1.108244,0.269708 -3.373226,0.541614 -6.46875,0.776557 -1.583023,0.0012 -3.221615,0.206522 -4.446657,0.298293 l -0.7922969,0.03955 c -0.4357634,0.02175 -1.0085155,0.05592 -1.2727827,0.07591 -0.4797557,0.03631 -0.4803967,0.03659 -0.421875,0.190519 0.088963,0.233992 0.079147,0.233717 -0.2133433,-0.006 l -0.271954,-0.222847 -0.321796,0.369977 c -0.1769878,0.203488 -0.321796,0.394175 -0.321796,0.42375 0,0.02958 0.4612771,0.459926 1.0250601,0.956333 l 1.0250601,0.90256 0.5038944,1.470477 c 1.0197757,2.975933 1.2952673,4.184185 1.5679553,6.876726 0.03655,0.360938 0.08159,0.747657 0.100078,0.859375 l 0.03362,0.203125 -0.8969636,0 -0.8969638,0 -0.1095932,-0.578125 0,0 z"
       id="path3892"
       inkscape:connector-curvature="0"
       sodipodi:nodetypes="csssssssccscsssssscsccccscscsssccscsccssscscccccccc" />
    <path
       style="fill:#3465a4;fill-opacity:1;fill-rule:evenodd;stroke:none"
       d="m 38.476065,-1.9081941 c -0.01556,-0.027179 -0.04756,-0.1619173 -0.07109,-0.2994173 -0.02353,-0.1375 -0.0556,-0.2940186 -0.07125,-0.3478191 -0.03583,-0.1231296 0.668681,-0.2962771 1.311073,-0.322224 l 0.432197,-0.017457 0.08039,0.3103339 c 0.04421,0.1706836 0.0738,0.3169151 0.06576,0.3249587 -0.008,0.00804 -0.351205,0.087056 -0.762582,0.1755829 -0.411377,0.088527 -0.79481,0.1754708 -0.852073,0.1932086 -0.05726,0.017738 -0.116851,0.010013 -0.132417,-0.017167 z"
       id="path3894"
       inkscape:connector-curvature="0" />
    <path
       style="fill:#3465a4;fill-opacity:1;fill-rule:evenodd;stroke:none"
       d="m 15.933989,23.734319 c -0.0022,-0.254772 0.06648,-0.449407 0.396862,-1.125 0.508311,-1.039425 1.0308,-1.774998 1.82201,-2.565069 1.113375,-1.111773 1.788926,-1.507873 3.309736,-1.940614 1.994382,-0.567494 3.876441,-0.86059 8.422379,-1.311629 l 2.297378,-0.227941 0.207592,0.128299 0.207593,0.128299 0.131276,-0.17756 c 0.119734,-0.16195 0.176994,-0.181514 0.651279,-0.222525 1.573693,-0.136077 3.688147,-0.537512 4.84406,-0.919659 1.967153,-0.650345 2.483397,-1.358961 2.474091,-3.396031 -0.0022,-0.48125 -0.03179,-1.057813 -0.06575,-1.28125 -0.03397,-0.223438 -0.05625,-0.412651 -0.04952,-0.420475 0.0067,-0.0078 0.235524,0.171628 0.508429,0.39878 0.272907,0.227153 0.615592,0.511052 0.761523,0.630887 l 0.265331,0.217883 0.123215,-0.147913 c 0.263381,-0.316174 0.100886,0.05858 -0.539108,1.243318 -1.449242,2.68279 -2.088504,3.465521 -3.594347,4.401021 -1.968626,1.223002 -4.551282,1.88596 -8.852852,2.272492 -1.058544,0.09512 -1.089902,0.09447 -1.420987,-0.02941 l -0.338558,-0.12667 -0.03763,0.149932 c -0.04235,0.16874 -0.07074,0.174648 -1.370394,0.285101 -1.821198,0.154779 -4.015977,0.499867 -5.107497,0.803059 -0.792567,0.268212 -1.171864,0.366988 -1.599595,0.508901 -0.2986,0.106911 -0.781971,0.3125 -1.074158,0.456862 l -0.53125,0.262477 -0.0625,0.583442 -0.0625,0.583443 -0.293126,-0.224068 c -0.161219,-0.123237 -0.315906,-0.223876 -0.34375,-0.223641 -0.02784,2.5e-4 -0.120937,0.104329 -0.206874,0.231319 -0.08594,0.12699 -0.25029,0.32537 -0.365228,0.440843 -0.114938,0.115473 -0.275468,0.369974 -0.356734,0.565557 l -0.147754,0.355605 -0.0026,-0.30807 z"
       id="path3890"
       inkscape:connector-curvature="0"
       sodipodi:nodetypes="csssscccssssccsscssssccssccscccsccssccc" />
    <path
       style="fill:#3465a4;fill-opacity:1;fill-rule:evenodd;stroke:none"
       d="m 21.459742,20.39377 c 0,-0.0082 0.01569,-0.01326 0.09529,-0.03084 1.230636,-0.271893 2.959065,-0.524069 4.531284,-0.66111 0.881118,-0.0768 1.087708,-0.09986 1.214145,-0.135493 0.0828,-0.02334 0.12122,-0.04935 0.141076,-0.0955 0.0063,-0.01465 0.02063,-0.06376 0.03185,-0.109144 0.01122,-0.04538 0.02238,-0.08472 0.0248,-0.08742 0.0025,-0.0028 0.08377,0.02482 0.185675,0.06298 0.0997,0.03734 0.208383,0.07716 0.241525,0.0885 0.06367,0.02179 0.06368,0.02182 0.0074,0.03298 -0.01747,0.0035 -0.03177,0.0085 -0.03177,0.01127 0,0.0027 0.0041,0.02372 0.0092,0.04662 0.005,0.02291 0.008,0.0428 0.0066,0.04422 -0.0014,0.0014 -0.212486,0.02008 -0.469046,0.04148 -2.151798,0.179457 -3.267608,0.303633 -4.413565,0.491178 -0.502123,0.08218 -1.193828,0.217325 -1.513651,0.295745 -0.06201,0.01521 -0.06077,0.01511 -0.06077,0.0045 z"
       id="path3898"
       inkscape:connector-curvature="0" />
    <path
       style="fill:#3465a4;fill-opacity:1;fill-rule:evenodd;stroke:none"
       d="m 28.015267,19.505003 c -0.0054,-0.02618 -0.0088,-0.04862 -0.0076,-0.04985 0.0012,-0.0012 0.01689,0.0016 0.03479,0.0063 0.153592,0.04014 0.353294,0.03621 0.991012,-0.01953 0.229914,-0.02009 1.013975,-0.09547 1.149048,-0.110467 0.05317,-0.0059 0.100736,-0.01075 0.105698,-0.01078 0.0078,-4.1e-5 0.01872,0.021 0.0136,0.02613 -0.0053,0.0053 -0.820245,0.08329 -1.344963,0.128688 -0.387252,0.03351 -0.907986,0.07714 -0.920649,0.07715 -0.0096,5e-6 -0.01257,-0.0067 -0.02098,-0.0476 l 0,0 z"
       id="path3900"
       inkscape:connector-curvature="0" />
    <path
       style="fill:#3465a4;fill-opacity:1;fill-rule:evenodd;stroke:none"
       d="m 42.27355,11.679239 c 0.0668,-0.157268 0.102774,-0.273992 0.08866,-0.287672 -0.0092,-0.0089 -0.06894,0.04113 -0.132833,0.111146 l -0.11616,0.127308 -0.191845,-0.157289 c -0.158731,-0.130138 -0.18624,-0.161649 -0.159366,-0.182551 0.05593,-0.0435 0.632427,-0.746323 0.632427,-0.771006 0,-0.0129 0.01821,-0.007 0.04046,0.01316 0.02225,0.02014 0.04848,0.02914 0.05828,0.02 0.05817,-0.05427 -0.09348,0.936921 -0.164708,1.076546 -0.04454,0.0873 -0.08724,0.126455 -0.05492,0.05036 z"
       id="path3902"
       inkscape:connector-curvature="0" />
    <path
       style="fill:#3465a4;fill-opacity:1;fill-rule:evenodd;stroke:none"
       d="m 32.380677,16.668131 -0.19712,-0.120062 0.212745,-0.02076 c 0.117011,-0.01142 0.276027,-0.0293 0.353371,-0.03974 l 0.140625,-0.01898 -0.09466,0.07975 c -0.05206,0.04386 -0.114205,0.116273 -0.138093,0.160908 -0.02389,0.04464 -0.0516,0.08066 -0.06159,0.08005 -0.01,-6.07e-4 -0.106861,-0.05513 -0.215278,-0.121166 z"
       id="path3904"
       inkscape:connector-curvature="0" />
  </g>
</svg>
