<?xml version="1.0" encoding="UTF-8" standalone="no"?>
<!-- Created with Inkscape (http://www.inkscape.org/) -->

<svg
   xmlns:dc="http://purl.org/dc/elements/1.1/"
   xmlns:cc="http://creativecommons.org/ns#"
   xmlns:rdf="http://www.w3.org/1999/02/22-rdf-syntax-ns#"
   xmlns:svg="http://www.w3.org/2000/svg"
   xmlns="http://www.w3.org/2000/svg"
   xmlns:xlink="http://www.w3.org/1999/xlink"
   xmlns:sodipodi="http://sodipodi.sourceforge.net/DTD/sodipodi-0.dtd"
   xmlns:inkscape="http://www.inkscape.org/namespaces/inkscape"
   width="48px"
   height="48px"
   id="svg2985"
   version="1.1"
   inkscape:version="0.48.3.1 r9886"
   sodipodi:docname="kidney.svg"
   inkscape:export-filename="/home/hoel/icones/kidney22.png"
   inkscape:export-xdpi="41.25"
   inkscape:export-ydpi="41.25">
  <title
     id="title4413">kidney</title>
  <defs
     id="defs2987">
    <linearGradient
       inkscape:collect="always"
       id="linearGradient3902">
      <stop
         style="stop-color:#fce94f;stop-opacity:1;"
         offset="0"
         id="stop3904" />
      <stop
         style="stop-color:#fce94f;stop-opacity:0;"
         offset="1"
         id="stop3906" />
    </linearGradient>
    <linearGradient
       id="linearGradient3872">
      <stop
         style="stop-color:#fce94f;stop-opacity:1;"
         offset="0"
         id="stop3874" />
      <stop
         style="stop-color:#fce94f;stop-opacity:0;"
         offset="1"
         id="stop3876" />
    </linearGradient>
    <radialGradient
       inkscape:collect="always"
       xlink:href="#linearGradient3872"
       id="radialGradient3878"
       cx="8.4930878"
       cy="20.896025"
       fx="8.4930878"
       fy="20.896025"
       r="11.377184"
       gradientTransform="matrix(-0.43642082,-0.11220698,0.35221598,-1.3699184,11.871698,49.384826)"
       gradientUnits="userSpaceOnUse" />
    <radialGradient
       inkscape:collect="always"
       xlink:href="#linearGradient3902"
       id="radialGradient3908"
       cx="10.231684"
       cy="23.00861"
       fx="10.231684"
       fy="23.00861"
       r="11.52173"
       gradientTransform="matrix(0.8635956,0.28572781,-0.52367753,1.5827847,16.513043,-17.267466)"
       gradientUnits="userSpaceOnUse" />
  </defs>
  <sodipodi:namedview
     id="base"
     pagecolor="#ffffff"
     bordercolor="#666666"
     borderopacity="1.0"
     inkscape:pageopacity="0.0"
     inkscape:pageshadow="2"
     inkscape:zoom="1.75"
     inkscape:cx="15.583341"
     inkscape:cy="188.38007"
     inkscape:current-layer="layer1"
     showgrid="true"
     inkscape:grid-bbox="true"
     inkscape:document-units="px"
     inkscape:window-width="1061"
     inkscape:window-height="1027"
     inkscape:window-x="64"
     inkscape:window-y="24"
     inkscape:window-maximized="0" />
  <metadata
     id="metadata2990">
    <rdf:RDF>
      <cc:Work
         rdf:about="">
        <dc:format>image/svg+xml</dc:format>
        <dc:type
           rdf:resource="http://purl.org/dc/dcmitype/StillImage" />
        <dc:title>kidney</dc:title>
        <cc:license
           rdf:resource="http://creativecommons.org/licenses/by/3.0/" />
        <dc:creator>
          <cc:Agent>
            <dc:title>Hoel CHARBONNEL</dc:title>
          </cc:Agent>
        </dc:creator>
      </cc:Work>
      <cc:License
         rdf:about="http://creativecommons.org/licenses/by/3.0/">
        <cc:permits
           rdf:resource="http://creativecommons.org/ns#Reproduction" />
        <cc:permits
           rdf:resource="http://creativecommons.org/ns#Distribution" />
        <cc:requires
           rdf:resource="http://creativecommons.org/ns#Notice" />
        <cc:requires
           rdf:resource="http://creativecommons.org/ns#Attribution" />
        <cc:permits
           rdf:resource="http://creativecommons.org/ns#DerivativeWorks" />
      </cc:License>
    </rdf:RDF>
  </metadata>
  <g
     id="layer1"
     inkscape:label="Layer 1"
     inkscape:groupmode="layer">
    <path
       style="fill:none;stroke:#000000;stroke-width:0.5;stroke-linecap:butt;stroke-linejoin:miter;stroke-opacity:1;stroke-miterlimit:4;stroke-dasharray:none"
       d="m 20.506097,15.523596 c 0,0 0.897777,2.42061 1.666751,3.434518 0.475669,0.627179 1.04179,1.261481 1.767767,1.565737 0.902727,0.378331 2.009338,0.535882 2.929443,0.20203 1.645401,-0.597019 3.120323,-2.018561 3.788072,-3.636549 1.117853,-2.708611 0.975244,-6.10501 -0.202031,-8.788327 C 29.422797,5.9458404 27.360506,3.6966644 24.90026,2.9471965 22.594013,2.2446416 19.90456,3.0727801 17.778685,4.2098872 15.332224,5.5184719 13.39134,7.8079884 12.020815,10.220295 9.4583687,14.730541 8.1691524,20.041835 7.8791899,25.22106 7.6152385,29.935683 7.3028811,35.408394 10.101525,39.211673 c 2.182149,2.965479 6.218886,4.804612 9.899495,4.89924 2.713807,0.06977 5.984402,-0.963711 7.475129,-3.232488 1.109412,-1.688443 0.485746,-4.099874 0,-6.060916 -0.494323,-1.995667 -1.880194,-4.229474 -2.878935,-5.454823 -0.389557,0.577121 -0.654139,1.510075 -1.26269,2.020305 -0.862457,0.723112 -3.131473,1.26269 -3.131473,1.26269 l 0.101015,0"
       id="path3060"
       inkscape:connector-curvature="0"
       sodipodi:nodetypes="cssssssssssssscscc" />
    <path
       style="fill:none;stroke:#000000;stroke-width:0.5;stroke-linecap:butt;stroke-linejoin:miter;stroke-opacity:1;stroke-miterlimit:4;stroke-dasharray:none"
       d="m 24.041631,20.473343 c 0,0 0.512344,1.151934 0.606091,1.767767 0.359928,2.364404 -0.20203,7.172083 -0.20203,7.172083 l 0.05051,-0.05051"
       id="path3062"
       inkscape:connector-curvature="0"
       sodipodi:nodetypes="cscc" />
    <path
       style="fill:none;stroke:#000000;stroke-width:0.5;stroke-linecap:butt;stroke-linejoin:miter;stroke-miterlimit:4;stroke-opacity:1;stroke-dasharray:none"
       d="m 24.496199,29.413193 c 0,0 2.785294,0.531116 3.687057,1.818275 1.132876,1.617045 1.978394,3.480946 2.424366,5.404316 0.559342,2.412306 0.305488,4.948882 0.252538,7.424621 -0.02817,1.316777 -0.290419,4.267895 -0.290419,4.267895 l 1.666752,0.05051 c 0,0 0.302031,-6.161164 0.08839,-9.06612 C 32.144809,36.864205 31.903038,34.435057 31.365237,32.03959 31.061789,30.687978 30.723831,29.330171 30.254069,28.049487 29.750999,26.677995 29.097072,25.33886 28.233764,24.1604 27.347317,22.950354 24.243661,20.675373 24.243661,20.675373"
       id="path3064"
       inkscape:connector-curvature="0"
       sodipodi:nodetypes="csssccssssc" />
    <path
       style="fill:#c4a000;fill-opacity:1;fill-rule:evenodd;stroke:#ef2929;stroke-width:0.00075761000000000;stroke-linecap:round;stroke-linejoin:round;stroke-miterlimit:4;stroke-opacity:0.48235294000000001;stroke-dasharray:none"
       d="M 18.821302,43.739899 C 16.799178,43.465856 14.836115,42.749531 13.218318,41.695362 10.160476,39.702848 8.6345641,37.023266 8.1430043,32.782841 7.9195547,30.855259 7.9695105,27.165556 8.2637014,23.868244 8.9387997,16.301695 11.831722,9.3862813 15.740336,5.99565 16.71036,5.1541777 17.416199,4.6909034 18.556209,4.1474649 c 1.134648,-0.5408826 2.050177,-0.849332 3.109892,-1.0477492 0.842226,-0.1576951 2.067989,-0.1570552 2.71104,0.00142 1.430347,0.352488 2.679694,1.1120991 3.818623,2.321746 1.937467,2.0577683 2.919954,4.6022913 2.929298,7.5865253 0.0075,2.388418 -0.605787,4.304338 -1.816176,5.673969 -0.574218,0.649763 -1.213754,1.145464 -1.951795,1.512828 -0.740159,0.368417 -0.921592,0.41357 -1.641498,0.408513 -0.681965,-0.0048 -1.187841,-0.118298 -1.782893,-0.400042 -0.546537,-0.258773 -1.237053,-0.945326 -1.750791,-1.740742 -0.262691,-0.406724 -0.784541,-1.483523 -1.125456,-2.322301 -0.141369,-0.347817 -0.273156,-0.651191 -0.292862,-0.674164 -0.04547,-0.05302 -0.455612,0.06735 -0.484308,0.142136 -0.07324,0.190863 1.236894,2.928814 1.683719,3.518676 0.554959,0.732612 1.172303,1.306041 1.667972,1.549323 0.258924,0.127084 0.266985,0.137853 0.420305,0.561566 0.278985,0.771001 0.345433,1.102734 0.405215,2.022989 0.07837,1.206431 0.0099,2.9711 -0.205253,5.291595 l -0.09493,1.023701 -0.293648,0.567289 c -0.406884,0.786048 -0.736496,1.117246 -1.440495,1.447424 -0.539909,0.25322 -1.31305,0.526986 -1.950621,0.690708 -0.365521,0.09386 -0.3697,0.09681 -0.340927,0.240678 0.01602,0.08011 0.02913,0.20216 0.02913,0.271227 0,0.117725 0.01184,0.123366 0.189403,0.09022 0.373946,-0.06981 1.644454,-0.48797 2.124351,-0.699183 1.027466,-0.45221 1.322263,-0.736547 1.920978,-1.852811 l 0.247133,-0.460763 0.177981,0.243119 c 0.985849,1.346659 1.916407,3.148234 2.286652,4.426993 0.353902,1.222316 0.612871,2.547628 0.676858,3.463924 0.114628,1.641466 -0.226247,2.570236 -1.333447,3.633192 -1.145508,1.099734 -2.966744,1.878096 -4.975386,2.126388 -0.581783,0.07192 -2.035774,0.05769 -2.652975,-0.02595 l 0,0 z"
       id="path3880"
       inkscape:connector-curvature="0" />
    <path
       style="fill:#c4a000;fill-opacity:1;fill-rule:evenodd;stroke:#ef2929;stroke-width:0.00075761;stroke-linecap:round;stroke-linejoin:round;stroke-miterlimit:4;stroke-opacity:0.48235294;stroke-dasharray:none"
       d="M 18.998078,43.733435 C 18.900851,43.723179 18.51353,43.659473 18.137365,43.591868 14.994391,43.027 12.054976,41.304064 10.387485,39.04928 9.0301754,37.213925 8.2825971,34.819387 8.0841848,31.671673 7.9642311,29.768665 8.1068652,25.499813 8.3693892,23.135884 8.8246197,19.036703 9.8643497,15.267857 11.426008,12.056154 12.58204,9.6786604 13.653811,8.1005728 15.083737,6.6704715 16.223086,5.5309834 17.047324,4.9403886 18.467748,4.245712 20.236482,3.38069 21.615259,3.0119594 23.089196,3.0097835 c 2.228765,-0.00329 4.367947,1.2747757 6.042469,3.6101062 1.416931,1.9760856 2.086918,4.4647883 1.930807,7.1720833 -0.170827,2.962484 -1.363165,5.071204 -3.55406,6.285561 -0.760623,0.421594 -0.955114,0.474818 -1.742312,0.476798 -1.474584,0.0037 -2.352129,-0.467869 -3.333404,-1.791314 -0.342982,-0.46258 -0.65617,-1.062066 -1.211719,-2.319395 -0.227073,-0.513915 -0.433006,-0.955254 -0.457628,-0.980752 -0.06271,-0.06494 -0.450156,0.05836 -0.487262,0.155055 -0.07524,0.196086 1.243285,2.952212 1.711888,3.578363 0.359853,0.480837 1.023334,1.123858 1.38104,1.338452 0.467214,0.28029 0.545578,0.379819 0.726406,0.922602 0.253085,0.759671 0.30833,1.159172 0.340379,2.461409 0.03094,1.257155 -0.01623,2.350445 -0.189584,4.394164 l -0.104963,1.237436 -0.253211,0.479823 c -0.293528,0.556222 -0.564813,0.926939 -0.840365,1.148379 -0.386987,0.310991 -1.225598,0.670136 -2.395474,1.02589 l -0.542957,0.165111 7.73e-4,0.206643 c 0.0011,0.304973 0.04944,0.353946 0.308271,0.312557 0.418091,-0.06686 1.879621,-0.590206 2.412336,-0.86382 0.553465,-0.284271 0.729679,-0.420235 1.027292,-0.792641 0.156055,-0.195273 0.515343,-0.789359 0.707427,-1.169734 l 0.07291,-0.144392 0.177528,0.245407 c 0.355805,0.491848 0.688513,1.017133 1.051181,1.659621 0.844468,1.496024 1.255997,2.614251 1.619248,4.399914 0.493382,2.425348 0.373156,3.618006 -0.478984,4.751603 -1.008407,1.341477 -2.973759,2.364815 -5.212009,2.713837 -0.473507,0.07384 -2.252135,0.102378 -2.797146,0.04489 l 0,0 z"
       id="path3882"
       inkscape:connector-curvature="0" />
    <path
       style="fill:url(#radialGradient3908);fill-opacity:1;fill-rule:evenodd;stroke:#ef2929;stroke-width:0.00075761000000000;stroke-linecap:round;stroke-linejoin:round;stroke-miterlimit:4;stroke-opacity:0.48235294000000001;stroke-dasharray:none"
       d="M 18.998078,43.733435 C 18.900848,43.723175 18.51353,43.659475 18.137365,43.591868 14.994391,43.027 12.054976,41.304064 10.387485,39.04928 9.0301754,37.213925 8.2825971,34.819387 8.0841848,31.671673 c -0.1199537,-1.903008 0.02268,-6.17186 0.2852044,-8.535789 0.4552305,-4.099181 1.4949605,-7.868027 3.0566188,-11.07973 1.156032,-2.3774938 2.227803,-3.9555814 3.657729,-5.3856827 1.139349,-1.1394881 1.963587,-1.7300829 3.384011,-2.4247595 1.768734,-0.865022 3.147511,-1.2337526 4.621448,-1.2359285 2.228765,-0.00329 4.367947,1.2747757 6.042469,3.6101062 1.416931,1.9760856 2.086918,4.4647885 1.930807,7.1720835 -0.170827,2.962484 -1.363165,5.071204 -3.55406,6.285561 -0.760623,0.421594 -0.955114,0.474818 -1.742312,0.476798 -1.474584,0.0037 -2.352129,-0.467869 -3.333404,-1.791314 -0.342982,-0.46258 -0.65617,-1.062066 -1.211719,-2.319395 -0.227073,-0.513915 -0.433006,-0.955254 -0.457628,-0.980752 -0.06271,-0.06494 -0.450156,0.05836 -0.487262,0.155055 -0.07524,0.196086 1.243285,2.952212 1.711888,3.578363 0.359853,0.480837 1.023334,1.123858 1.38104,1.338452 0.467214,0.28029 0.545578,0.379819 0.726406,0.922602 0.253085,0.759671 0.30833,1.159172 0.340379,2.461409 0.03094,1.257155 -0.01623,2.350445 -0.189584,4.394164 l -0.104963,1.237436 -0.253211,0.479823 c -0.293528,0.556222 -0.564813,0.926939 -0.840365,1.148379 -0.386987,0.310991 -1.225598,0.670136 -2.395474,1.02589 l -0.542957,0.165111 7.73e-4,0.206643 c 0.0011,0.304973 0.04944,0.353946 0.308271,0.312557 0.418091,-0.06686 1.879621,-0.590206 2.412336,-0.86382 0.553465,-0.284271 0.729679,-0.420235 1.027292,-0.792641 0.156055,-0.195273 0.515343,-0.789359 0.707427,-1.169734 l 0.07291,-0.144392 0.177528,0.245407 c 0.355805,0.491848 0.688513,1.017133 1.051181,1.659621 0.844468,1.496024 1.255997,2.614251 1.619248,4.399914 0.493382,2.425348 0.373156,3.618006 -0.478984,4.751603 -1.008407,1.341477 -2.973759,2.364815 -5.212009,2.713837 -0.473507,0.07384 -2.252135,0.102378 -2.797146,0.04489 l 0,0 z"
       id="path3882-3"
       inkscape:connector-curvature="0" />
    <path
       style="fill:#fce94f;fill-opacity:1;fill-rule:evenodd;stroke:#ef2929;stroke-width:0.0001894;stroke-linecap:round;stroke-linejoin:round;stroke-miterlimit:4;stroke-opacity:0.48235294;stroke-dasharray:none"
       d="m 31.31837,48.096192 c -0.247951,-0.0079 -0.454734,-0.01821 -0.459518,-0.023 -0.0048,-0.0048 0.01494,-0.300047 0.04383,-0.656139 0.137783,-1.698155 0.192852,-2.62709 0.228889,-3.860989 0.0072,-0.24654 0.02137,-0.67838 0.0315,-0.959645 0.01012,-0.281264 0.02505,-0.704581 0.03316,-0.940704 0.02046,-0.595132 0.02109,-2.08553 10e-4,-2.443307 -0.05589,-0.997401 -0.137091,-1.664261 -0.294444,-2.418052 -0.02754,-0.131952 -0.05838,-0.271983 -0.06853,-0.311182 -0.01015,-0.0392 -0.01845,-0.07471 -0.01845,-0.07892 0,-0.0042 0.22178,-0.0076 0.492845,-0.0076 0.382818,0 0.494119,0.0035 0.498548,0.01578 0.01609,0.04455 0.153193,1.524338 0.220224,2.377015 0.08768,1.115331 0.102,1.505283 0.11014,2.99889 0.0069,1.26742 -0.0077,2.321784 -0.05302,3.825953 -0.02867,0.951611 -0.07263,2.12549 -0.08926,2.383329 l -0.0075,0.116799 -0.109307,-0.0019 c -0.06012,-0.0011 -0.312176,-0.0084 -0.560126,-0.01624 l 0,0 z"
       id="path3910"
       inkscape:connector-curvature="0" />
    <path
       style="fill:#fce94f;fill-opacity:1;fill-rule:evenodd;stroke:#ef2929;stroke-width:0.00107143;stroke-linecap:round;stroke-linejoin:round;stroke-miterlimit:4;stroke-opacity:0.48235294;stroke-dasharray:none"
       d="m 30.817426,36.289515 c -0.322328,-1.141295 -0.701705,-2.136689 -1.17856,-3.092261 -0.804436,-1.61201 -1.324276,-2.375369 -1.894892,-2.782553 -0.576563,-0.411426 -1.316661,-0.752088 -2.182562,-1.004618 -0.373214,-0.108844 -0.70378,-0.219367 -0.73459,-0.245608 -0.03081,-0.02624 -0.0019,-0.655717 0.06429,-1.398835 0.169828,-1.907289 0.173863,-4.947087 0.0075,-5.672554 -0.06756,-0.294642 -0.122853,-0.563693 -0.122885,-0.59789 -1.03e-4,-0.109677 1.613522,1.227181 2.488057,2.06131 2.004747,1.91212 3.566909,6.045211 4.330152,11.4565 0.09995,0.708651 0.181733,1.305858 0.181733,1.327126 0,0.08647 -0.933481,0.03716 -0.958272,-0.05062 z"
       id="path3912"
       inkscape:connector-curvature="0" />
  </g>
</svg>
