<?xml version="1.0" encoding="UTF-8" standalone="no"?>
<!-- Created with Inkscape (http://www.inkscape.org/) -->

<svg
   xmlns:dc="http://purl.org/dc/elements/1.1/"
   xmlns:cc="http://creativecommons.org/ns#"
   xmlns:rdf="http://www.w3.org/1999/02/22-rdf-syntax-ns#"
   xmlns:svg="http://www.w3.org/2000/svg"
   xmlns="http://www.w3.org/2000/svg"
   xmlns:xlink="http://www.w3.org/1999/xlink"
   xmlns:sodipodi="http://sodipodi.sourceforge.net/DTD/sodipodi-0.dtd"
   xmlns:inkscape="http://www.inkscape.org/namespaces/inkscape"
   width="48px"
   height="48px"
   id="svg2985"
   version="1.1"
   inkscape:version="0.48.3.1 r9886"
   sodipodi:docname="lungs.svg"
   inkscape:export-filename="/home/hoel/icones/lungs16.png"
   inkscape:export-xdpi="30"
   inkscape:export-ydpi="30">
  <title
     id="title3899">lungs</title>
  <defs
     id="defs2987">
    <linearGradient
       inkscape:collect="always"
       id="linearGradient4047">
      <stop
         style="stop-color:#3465a4;stop-opacity:1;"
         offset="0"
         id="stop4049" />
      <stop
         style="stop-color:#3465a4;stop-opacity:0;"
         offset="1"
         id="stop4051" />
    </linearGradient>
    <linearGradient
       inkscape:collect="always"
       id="linearGradient4037">
      <stop
         style="stop-color:#3465a4;stop-opacity:1;"
         offset="0"
         id="stop4039" />
      <stop
         style="stop-color:#3465a4;stop-opacity:0;"
         offset="1"
         id="stop4041" />
    </linearGradient>
    <linearGradient
       inkscape:collect="always"
       id="linearGradient4027">
      <stop
         style="stop-color:#729fcf;stop-opacity:1;"
         offset="0"
         id="stop4029" />
      <stop
         style="stop-color:#729fcf;stop-opacity:0;"
         offset="1"
         id="stop4031" />
    </linearGradient>
    <linearGradient
       inkscape:collect="always"
       id="linearGradient3979">
      <stop
         style="stop-color:#3465a4;stop-opacity:1;"
         offset="0"
         id="stop3981" />
      <stop
         style="stop-color:#3465a4;stop-opacity:0;"
         offset="1"
         id="stop3983" />
    </linearGradient>
    <linearGradient
       inkscape:collect="always"
       id="linearGradient3971">
      <stop
         style="stop-color:#729fcf;stop-opacity:1;"
         offset="0"
         id="stop3973" />
      <stop
         style="stop-color:#729fcf;stop-opacity:0;"
         offset="1"
         id="stop3975" />
    </linearGradient>
    <linearGradient
       inkscape:collect="always"
       id="linearGradient3963">
      <stop
         style="stop-color:#729fcf;stop-opacity:1;"
         offset="0"
         id="stop3965" />
      <stop
         style="stop-color:#729fcf;stop-opacity:0;"
         offset="1"
         id="stop3967" />
    </linearGradient>
    <linearGradient
       inkscape:collect="always"
       id="linearGradient3955">
      <stop
         style="stop-color:#3465a4;stop-opacity:1;"
         offset="0"
         id="stop3957" />
      <stop
         style="stop-color:#3465a4;stop-opacity:0;"
         offset="1"
         id="stop3959" />
    </linearGradient>
    <linearGradient
       id="linearGradient3887">
      <stop
         style="stop-color:#8f5902;stop-opacity:1;"
         offset="0"
         id="stop3889" />
      <stop
         id="stop3895"
         offset="0.36615753"
         style="stop-color:#8f5902;stop-opacity:0.49803922;" />
      <stop
         style="stop-color:#8f5902;stop-opacity:0;"
         offset="1"
         id="stop3891" />
    </linearGradient>
    <linearGradient
       inkscape:collect="always"
       xlink:href="#linearGradient3955"
       id="linearGradient3961"
       x1="2.8284054"
       y1="22.640706"
       x2="19.084906"
       y2="22.640706"
       gradientUnits="userSpaceOnUse" />
    <linearGradient
       inkscape:collect="always"
       xlink:href="#linearGradient3963"
       id="linearGradient3969"
       x1="0.50417391"
       y1="33.248061"
       x2="8.8173326"
       y2="33.248061"
       gradientUnits="userSpaceOnUse" />
    <linearGradient
       inkscape:collect="always"
       xlink:href="#linearGradient3979"
       id="linearGradient3985"
       x1="0.92027477"
       y1="34.327631"
       x2="22.935395"
       y2="34.327631"
       gradientUnits="userSpaceOnUse" />
    <radialGradient
       inkscape:collect="always"
       xlink:href="#linearGradient3971"
       id="radialGradient3987"
       cx="19.308828"
       cy="26.583368"
       fx="19.308828"
       fy="26.583368"
       r="10.194163"
       gradientTransform="matrix(-0.245009,-0.08113568,0.43859736,-1.324452,12.380271,63.908058)"
       gradientUnits="userSpaceOnUse" />
    <radialGradient
       inkscape:collect="always"
       xlink:href="#linearGradient4027"
       id="radialGradient4033"
       cx="23.892118"
       cy="26.479576"
       fx="23.892118"
       fy="26.479576"
       r="10.911998"
       gradientTransform="matrix(0.42396288,-0.08509635,0.30554141,1.5222532,10.620594,-10.976222)"
       gradientUnits="userSpaceOnUse" />
    <radialGradient
       inkscape:collect="always"
       xlink:href="#linearGradient4037"
       id="radialGradient4043"
       cx="37.451611"
       cy="39.061466"
       fx="37.451611"
       fy="39.061466"
       r="11.327971"
       gradientTransform="matrix(-0.20851259,0.25373711,-0.70862608,-0.58232498,66.891393,49.787765)"
       gradientUnits="userSpaceOnUse" />
    <radialGradient
       inkscape:collect="always"
       xlink:href="#linearGradient4047"
       id="radialGradient4053"
       cx="42.507809"
       cy="23.775261"
       fx="42.507809"
       fy="23.775261"
       r="9.6249697"
       gradientTransform="matrix(-0.70686998,0.09647526,-0.23605781,-1.7295852,78.167638,60.154944)"
       gradientUnits="userSpaceOnUse" />
    <filter
       inkscape:collect="always"
       id="filter4307">
      <feGaussianBlur
         inkscape:collect="always"
         stdDeviation="0.67616487"
         id="feGaussianBlur4309" />
    </filter>
    <filter
       inkscape:collect="always"
       id="filter4343">
      <feGaussianBlur
         inkscape:collect="always"
         stdDeviation="0.54133443"
         id="feGaussianBlur4345" />
    </filter>
    <filter
       inkscape:collect="always"
       id="filter4367">
      <feGaussianBlur
         inkscape:collect="always"
         stdDeviation="0.34448555"
         id="feGaussianBlur4369" />
    </filter>
    <filter
       inkscape:collect="always"
       id="filter4398">
      <feGaussianBlur
         inkscape:collect="always"
         stdDeviation="0.42627949"
         id="feGaussianBlur4400" />
    </filter>
    <filter
       inkscape:collect="always"
       id="filter3811"
       x="-0.40195113"
       width="1.8039023"
       y="-0.14791802"
       height="1.295836">
      <feGaussianBlur
         inkscape:collect="always"
         stdDeviation="1.1005805"
         id="feGaussianBlur3813" />
    </filter>
  </defs>
  <sodipodi:namedview
     id="base"
     pagecolor="#ffffff"
     bordercolor="#666666"
     borderopacity="1.0"
     inkscape:pageopacity="0.0"
     inkscape:pageshadow="2"
     inkscape:zoom="1.2374369"
     inkscape:cx="-5.5384051"
     inkscape:cy="-14.659721"
     inkscape:current-layer="layer1"
     showgrid="true"
     inkscape:grid-bbox="true"
     inkscape:document-units="px"
     inkscape:window-width="1857"
     inkscape:window-height="1056"
     inkscape:window-x="63"
     inkscape:window-y="24"
     inkscape:window-maximized="1" />
  <metadata
     id="metadata2990">
    <rdf:RDF>
      <cc:Work
         rdf:about="">
        <dc:format>image/svg+xml</dc:format>
        <dc:type
           rdf:resource="http://purl.org/dc/dcmitype/StillImage" />
        <dc:title>lungs</dc:title>
        <dc:creator>
          <cc:Agent>
            <dc:title>Hoel CHARBONNEL</dc:title>
          </cc:Agent>
        </dc:creator>
        <cc:license
           rdf:resource="http://creativecommons.org/licenses/by/3.0/" />
      </cc:Work>
      <cc:License
         rdf:about="http://creativecommons.org/licenses/by/3.0/">
        <cc:permits
           rdf:resource="http://creativecommons.org/ns#Reproduction" />
        <cc:permits
           rdf:resource="http://creativecommons.org/ns#Distribution" />
        <cc:requires
           rdf:resource="http://creativecommons.org/ns#Notice" />
        <cc:requires
           rdf:resource="http://creativecommons.org/ns#Attribution" />
        <cc:permits
           rdf:resource="http://creativecommons.org/ns#DerivativeWorks" />
      </cc:License>
    </rdf:RDF>
  </metadata>
  <g
     id="layer1"
     inkscape:label="Layer 1"
     inkscape:groupmode="layer">
    <path
       style="fill:#729fcf;fill-opacity:1;fill-rule:evenodd;stroke:none"
       d="M 11.847176,42.384722 C 11.040117,42.333068 10.138159,42.317008 8.8924799,42.332113 6.484447,42.361311 5.2942887,42.307264 3.5537904,42.089677 2.1695819,41.91663 1.8436323,41.848856 1.4606947,41.654461 1.2556814,41.550389 0.8819358,41.217515 0.92346705,41.175984 c 0.0146931,-0.01469 0.17160255,-0.0032 0.34868775,0.02553 0.7565057,0.122751 1.796999,0.03038 2.870723,-0.254852 1.0874197,-0.288871 3.3487382,-1.12717 4.219272,-1.564138 1.1763287,-0.590463 1.2910043,-0.610569 3.5607882,-0.624308 2.007927,-0.01215 2.215763,-0.03544 3.395843,-0.380519 2.937044,-0.858841 4.531138,-2.157917 5.745655,-4.68231 0.534733,-1.111451 0.679468,-1.73301 0.961443,-3.634956 0.08532,-0.575514 0.266897,-1.530652 0.347971,-2.024638 0.08107,-0.493985 0.161339,-1.057253 0.178367,-1.251708 0.07239,-0.826642 0.08793,-0.804973 0.235496,0.3283 0.223269,1.71467 0.20416,2.412303 -0.131423,4.798224 -0.06838,0.486136 -0.158923,1.281631 -0.201216,1.767767 -0.112774,1.296279 -0.173681,1.788081 -0.286959,2.317087 -0.127064,0.593388 -0.444733,1.52083 -0.682941,1.993864 -0.600613,1.192694 -1.904524,2.618393 -3.121023,3.412533 -0.703156,0.459024 -1.354389,0.724525 -2.260331,0.92151 -0.631411,0.137293 -2.621896,0.165983 -4.256644,0.06135 z"
       id="path3925"
       inkscape:connector-curvature="0"
       sodipodi:nodetypes="csssccsssssssssssssssc" />
    <path
       style="fill:#3465a4;fill-opacity:1;fill-rule:evenodd;stroke:none;filter:url(#filter4398)"
       d="m 2.6630497,39.958469 c 0.6083012,-0.520621 1.5668595,-0.961193 3.7498882,-1.53468 2.6084942,-0.685259 5.6614061,-1.663924 6.9700521,-2.507808 0.866128,-0.558525 1.094904,-1.165994 1.380519,-2.360568 0.234175,-0.979432 0.679125,-2.590234 0.897151,-3.863833 0.241966,-1.413441 0.440199,-2.751045 0.654884,-3.598856 0.190178,-0.751031 1.018569,-3.630739 1.545068,-5.23998 0.812544,-2.483535 0.923133,-3.360769 1.102163,-5.934645 0.04294,-0.617395 0.192318,-3.943031 0.206707,-4.621449 0,0 0.09466,-0.8634786 0.180477,-1.2626906 0.672252,0.020524 0.781457,0.5303306 0.781457,0.5303306 0.595026,0.4038109 1.735328,3.994115 1.206476,5.127792 l 0.05844,0.784135 -0.156494,0.603172 c -0.154541,0.595646 -0.116489,1.022091 -0.118117,2.247974 -0.0014,1.050537 -0.0042,2.034607 0.170457,2.898526 0.05553,0.274677 0.29145,1.081536 0.524261,1.793021 0.480009,1.466929 0.688428,2.260739 0.691483,3.001066 0.003,0.733256 -0.141495,1.306315 -0.362689,2.686704 -0.10683,0.666701 -0.293623,1.592254 -0.353363,1.995052 -0.23449,1.581059 -0.52356,2.249311 -1.029323,3.298736 -1.135438,2.355962 -2.641029,3.456476 -5.447693,4.273099 -1.083748,0.315325 -1.331432,0.359595 -3.245114,0.372929 -2.2903586,0.01596 -2.5276732,-0.0286 -3.4664999,0.449033 -0.3088163,0.157111 -0.8910465,0.487274 -1.0160528,0.5485 -0.2299729,0.112638 -2.2828555,0.829659 -2.8410541,1.00335 -0.4589384,0.142805 -1.3580146,0.356327 -1.6414979,0.394387 -1.2354393,0.280952 -1.1820906,0.08709 -2.0578827,0.01524 l 1.2374369,-0.820749 z"
       id="path3899"
       inkscape:connector-curvature="0"
       sodipodi:nodetypes="csssssssccsscsssscsssssssscccc" />
    <path
       inkscape:connector-curvature="0"
       id="path3927"
       d="M 11.847176,42.384722 C 11.040117,42.333068 10.138159,42.317008 8.8924799,42.332113 6.484447,42.361311 5.2942887,42.307264 3.5537904,42.089677 2.1695819,41.91663 1.8436323,41.848856 1.4606947,41.654461 1.2556814,41.550389 0.8819358,41.217515 0.92346705,41.175984 c 0.0146931,-0.01469 0.17160255,-0.0032 0.34868775,0.02553 0.7565057,0.122751 1.796999,0.03038 2.870723,-0.254852 1.0874197,-0.288871 2.0331135,-0.111334 3.0070889,-0.09942 1.277344,0.01563 2.8062328,-0.0045 5.0760163,-0.01822 2.007927,-0.01215 3.003027,-0.09345 4.052443,-0.734071 2.482475,-1.515441 3.21794,-1.955887 4.432457,-4.48028 0.534733,-1.111451 1.684544,-3.479856 2.017026,-5.280787 0.105626,-0.572135 -0.435133,-1.804111 -0.354059,-2.298097 0.08107,-0.493985 0.161339,-1.057253 0.178367,-1.251708 0.07239,-0.826642 0.08793,-0.804973 0.235496,0.3283 0.223269,1.71467 0.20416,2.412303 -0.131423,4.798224 -0.06838,0.486136 -0.158923,1.281631 -0.201216,1.767767 -0.112774,1.296279 -0.173681,1.788081 -0.286959,2.317087 -0.127064,0.593388 -0.596256,1.924891 -0.834464,2.397925 -0.600613,1.192694 -1.753001,2.214332 -2.9695,3.008472 -0.703156,0.459024 -1.354389,0.724525 -2.260331,0.92151 -0.631411,0.137293 -2.621896,0.165983 -4.256644,0.06135 z"
       style="fill:url(#linearGradient3985);fill-opacity:1;fill-rule:evenodd;stroke:none"
       sodipodi:nodetypes="csssccsssssssssssssssc" />
    <path
       inkscape:connector-curvature="0"
       id="path3901"
       d="m 1.7539124,40.791845 c 0.6083012,-0.520621 2.5770121,-1.188477 4.7600408,-1.761964 2.6084942,-0.685259 5.2068378,-2.118494 6.5154838,-2.962378 0.866128,-0.558525 1.953533,-1.165993 2.239148,-2.360567 0.234175,-0.979432 0.679125,-3.196326 0.897151,-4.469925 0.241966,-1.413441 0.389692,-2.144953 0.604377,-2.992764 0.190178,-0.751031 0.968061,-3.858023 1.49456,-5.467264 0.812544,-2.483535 1.074656,-3.183993 1.253686,-5.757869 0.04294,-0.617395 0.192318,-3.993538 0.206707,-4.671956 l 0.0037,-0.176777 0.07435,0.202031 c 0.0764,0.207601 0.795841,3.050949 1.080207,4.269162 l 0.159459,0.68312 -0.156494,0.451649 c -0.201469,0.581453 -0.268012,1.173614 -0.26964,2.399497 -0.0014,1.050537 -0.357759,2.438668 -0.183097,3.302587 0.05553,0.274677 0.746019,0.77849 0.97883,1.489975 0.480009,1.466929 0.587413,1.957694 0.590468,2.698021 0.003,0.733256 -0.04048,1.154792 -0.261674,2.535181 -0.10683,0.666701 -0.192607,1.693269 -0.252347,2.096067 -0.23449,1.581059 -0.220515,2.022026 -0.726278,3.071451 -1.135438,2.355962 -2.754671,4.113075 -5.561335,4.929698 C 14.117467,38.614145 14.08444,38.24173 12.170758,38.25506 9.8803997,38.27102 9.2769048,38.23908 8.3380781,38.71672 8.0292618,38.873831 7.6743159,39.052471 7.5493096,39.113697 7.3193367,39.226335 5.1528119,40.031744 4.5946133,40.205435 4.1356749,40.34824 4.0699746,40.486 3.7864913,40.52406 3.6475953,40.54271 3.1235787,40.973271 3.7612373,40.683966 L 1.6146633,40.809963 3.5216294,39.630168 1.80437,40.135244 z"
       style="fill:url(#radialGradient3987);fill-opacity:1;fill-rule:evenodd;stroke:none;filter:url(#filter4307)"
       sodipodi:nodetypes="csssssssccsscsssscsssssssscccccc" />
    <path
       style="fill:#204a87;fill-opacity:1;fill-rule:evenodd;stroke:none"
       d="M 0.78333347,40.920107 C 0.50214729,40.465138 0.39914926,33.409118 0.63532554,30.780621 0.83118589,28.600816 1.0745789,27.839702 2.1417009,26.070036 l 0.5150163,-0.854079 -0.024091,1.515229 c -0.022603,1.421678 -0.00631,1.571359 0.2638732,2.424366 0.6654916,2.10104 1.0908716,2.907673 2.7625281,5.238487 1.0600211,1.478002 1.4565084,1.919429 2.4207325,2.695106 l 0.7375723,0.593347 -0.6823459,0.199017 c -0.3752903,0.109459 -1.3310088,0.383251 -2.1238189,0.608427 -1.9690162,0.559245 -2.817578,0.931667 -4.085246,1.792955 -0.5951262,0.404345 -1.10929103,0.691092 -1.14258843,0.637216 l 0,0 z"
       id="path3913"
       inkscape:connector-curvature="0" />
    <path
       inkscape:connector-curvature="0"
       id="path3915"
       d="M 0.78333347,40.920107 C 0.50214729,40.465138 0.39914926,33.409118 0.63532554,30.780621 0.83118589,28.600816 1.0745789,27.839702 2.1417009,26.070036 l 0.060448,-0.500526 0.1274318,1.161676 c 0.155043,1.413379 0.1452129,1.924912 0.4153961,2.777919 0.6654916,2.10104 1.2423945,2.55412 2.914051,4.884934 1.0600211,1.478002 1.4565084,1.919429 2.4207325,2.695106 l 0.7375723,0.593347 -0.6823459,0.199017 c -0.3752903,0.109459 -1.3310088,0.383251 -2.1238189,0.608427 -1.9690162,0.559245 -2.817578,0.931667 -4.085246,1.792955 -0.5951262,0.404345 -1.10929103,0.691092 -1.14258843,0.637216 z"
       style="fill:url(#linearGradient3969);fill-opacity:1;fill-rule:evenodd;stroke:none"
       sodipodi:nodetypes="csscsssscssscc" />
    <path
       inkscape:connector-curvature="0"
       id="path3885"
       d="M 7.5384529,36.496534 C 6.8847154,35.881924 6.4778656,35.361673 5.6246091,34.049243 4.6244657,32.510881 4.180735,32.357028 3.4951904,30.538963 2.7787008,28.638833 2.4386197,27.976775 2.6641492,26.717965 l 0.1642562,-0.916808 -0.093621,-0.825705 c -0.039021,-0.344156 0.6674216,-1.699485 0.9802689,-2.643978 0.7061491,-2.13188 2.6207961,-5.80552 3.6668871,-7.271726 0.8943578,-1.253536 3.8403022,-4.411828 5.3303982,-5.2983428 2.022149,-1.2030545 4.160766,-2.0475714 5.165578,-1.7465225 0.831487,0.2491195 1.390777,0.5105309 1.205289,4.3219593 -0.246891,5.073168 -0.271462,5.70695 -1.326715,8.99792 -1.091571,3.404236 -1.728926,5.541884 -2.065225,7.461689 -0.439774,2.510502 -0.726714,4.541942 -0.973283,5.290389 -0.298865,0.907192 -1.13239,1.448882 -2.637074,2.180216 -1.174275,0.570741 -3.329465,1.01737 -3.5909687,1.012346 -0.066692,-0.0013 -0.4948609,-0.353572 -0.9514874,-0.782868 z"
       style="fill:#729fcf;fill-opacity:1;fill-rule:evenodd;stroke:none"
       sodipodi:nodetypes="cssscsssssssssscc" />
    <path
       style="fill:url(#linearGradient3961);fill-opacity:1;fill-rule:evenodd;stroke:none"
       d="M 7.5384529,36.496534 C 6.8847154,35.881924 6.4778656,35.361673 5.6246091,34.049243 4.6244657,32.510881 4.4837808,32.230759 3.7982362,30.412694 3.0817466,28.512564 3.0514615,28.396181 2.9419412,27.122026 L 2.8284054,25.801157 3.1388458,25.253244 c 0.1707423,-0.301352 0.5664064,-1.320678 0.8792537,-2.265171 0.7061491,-2.13188 2.1157198,-6.159073 3.1618108,-7.625279 0.8943578,-1.253536 4.0423327,-4.36132 5.4314127,-5.3993583 1.884823,-1.408499 4.463812,-2.1990943 5.468624,-1.8980454 0.831487,0.2491195 1.13824,0.4600233 0.952752,4.2714517 -0.246891,5.073168 -0.32197,5.807965 -1.377223,9.098935 -1.091571,3.404236 -1.577403,5.440869 -1.913702,7.360674 -0.439774,2.510502 -0.878237,4.59245 -1.124806,5.340897 -0.298865,0.907192 -1.081882,1.751927 -2.586566,2.483261 -1.174275,0.570741 -2.778958,0.878103 -3.0404617,0.873079 -0.066692,-0.0013 -0.9948609,-0.567858 -1.4514874,-0.997154 z"
       id="path3883"
       inkscape:connector-curvature="0"
       sodipodi:nodetypes="cssscsssssssssscc" />
    <path
       style="fill:#729fcf;stroke:#000000;stroke-width:0;stroke-linecap:butt;stroke-linejoin:miter;stroke-opacity:1;stroke-miterlimit:4;stroke-dasharray:none"
       d="m 31.264221,7.7959287 c 1.37544,0.081796 2.556699,1.0808631 3.687057,1.8687822 3.166439,2.2071751 6.548462,4.5405241 8.485281,7.8791901 0.893469,1.540151 0.577379,3.538743 1.212184,5.202285 0.588263,1.541575 1.932317,2.75383 2.373858,4.343656 0.649324,2.337976 0.312021,4.846646 0.303046,7.273099 -0.01016,2.747532 1.474628,6.227858 -0.404061,8.232743 -1.517905,1.619867 -4.396588,0.75691 -6.616499,0.757614 -3.422821,0.0011 -7.000379,0.0474 -10.202541,-1.161675 -1.26711,-0.478436 -2.605484,-1.181224 -3.333504,-2.323351 -0.578743,-0.90794 -0.571016,-2.105385 -0.555583,-3.181981 0.02291,-1.597914 0.953714,-3.099142 0.959644,-4.697209 0.0074,-2.007483 -0.732445,-3.948319 -1.161675,-5.909392 -0.107391,-0.490647 -0.360362,-0.962505 -0.353553,-1.464721 0.0087,-0.645219 0.559358,-1.225792 0.505076,-1.868783 -0.06083,-0.720596 -0.79085,-1.256378 -0.909137,-1.969797 -0.132899,-0.801552 0.129214,-1.621285 0.252538,-2.424366 0.140827,-0.917058 0.412704,-1.810672 0.555584,-2.727412 0.239931,-1.539439 -0.143278,-3.229989 0.505076,-4.646702 0.421355,-0.920699 1.226928,-1.6627957 2.070813,-2.2223354 0.776827,-0.5150765 1.695965,-1.0149765 2.626396,-0.9596449 z"
       id="path3093"
       inkscape:connector-curvature="0"
       sodipodi:nodetypes="sssssssssssssssssssss" />
    <path
       sodipodi:nodetypes="sssssssssssssssssssss"
       inkscape:connector-curvature="0"
       id="path4035"
       d="m 31.264221,7.7959287 c 1.37544,0.081796 2.556699,1.0808631 3.687057,1.8687822 3.166439,2.2071751 6.548462,4.5405241 8.485281,7.8791901 0.893469,1.540151 0.577379,3.538743 1.212184,5.202285 0.588263,1.541575 1.932317,2.75383 2.373858,4.343656 0.649324,2.337976 0.312021,4.846646 0.303046,7.273099 -0.01016,2.747532 1.474628,6.227858 -0.404061,8.232743 -1.517905,1.619867 -4.396588,0.75691 -6.616499,0.757614 -3.422821,0.0011 -7.000379,0.0474 -10.202541,-1.161675 -1.26711,-0.478436 -2.605484,-1.181224 -3.333504,-2.323351 -0.578743,-0.90794 -0.571016,-2.105385 -0.555583,-3.181981 0.02291,-1.597914 0.953714,-3.099142 0.959644,-4.697209 0.0074,-2.007483 -0.732445,-3.948319 -1.161675,-5.909392 -0.107391,-0.490647 -0.360362,-0.962505 -0.353553,-1.464721 0.0087,-0.645219 0.559358,-1.225792 0.505076,-1.868783 -0.06083,-0.720596 -0.79085,-1.256378 -0.909137,-1.969797 -0.132899,-0.801552 0.129214,-1.621285 0.252538,-2.424366 0.140827,-0.917058 0.412704,-1.810672 0.555584,-2.727412 0.239931,-1.539439 -0.143278,-3.229989 0.505076,-4.646702 0.421355,-0.920699 1.226928,-1.6627957 2.070813,-2.2223354 0.776827,-0.5150765 1.695965,-1.0149765 2.626396,-0.9596449 z"
       style="fill:url(#radialGradient4043);stroke:#000000;stroke-width:0;stroke-linecap:butt;stroke-linejoin:miter;stroke-opacity:1;stroke-miterlimit:4;stroke-dasharray:none;fill-opacity:1" />
    <path
       style="fill:#729fcf;fill-opacity:1;fill-rule:evenodd;stroke:none"
       d="m 22.477855,25.328758 c 0,-0.25189 -0.200555,-0.983072 -0.641247,-2.33785 -0.427342,-1.313741 -0.546054,-1.927003 -0.653253,-3.374682 -0.09864,-1.332085 -0.01679,-2.561532 0.208074,-3.125318 l 0.142442,-0.357143 0.185637,0.418153 c 0.721567,1.625356 0.771025,1.982465 0.805213,5.81399 0.01551,1.738393 0.01131,3.160714 -0.0093,3.160714 -0.02064,0 -0.03753,-0.08904 -0.03753,-0.197864 z"
       id="path3989"
       inkscape:connector-curvature="0" />
    <path
       style="fill:#3465a4;stroke:none;filter:url(#filter4367)"
       d="m 28.5,8.8571428 c -0.837934,0.7835784 -1.715083,2.3920932 -2.071429,3.7857142 -0.347998,1.360975 -0.108283,2.813704 0,4.214286 0.08358,1.081088 0.549135,2.131086 0.5,3.214286 -0.07562,1.667161 -1.214285,3.188266 -1.214285,4.857142 0,2.061553 1.325827,3.945818 1.5,6 0.159373,1.879625 -1.285028,3.427293 -0.142858,4.928572 0.89625,1.17804 1.7386,0.643901 3.071429,-10e-7 0.747902,-0.361319 1.170327,-2.389185 2,-2.42857 1.187471,-0.05637 1.212364,3.963964 2.071429,4.785714 1.09481,1.047254 2.51833,1.732024 3.928571,2.285714 2.725992,1.070281 5.844869,2.997403 8.571429,1.928571 C 47.144694,42.259848 47.688017,41.708051 47.5,41.285714 46.75772,39.618355 43.827322,41.069331 42.071429,40.571429 40.113098,40.016124 37.726335,39.696091 36.5,38.071429 34.702661,35.690295 36.019671,32.086843 35.214286,29.214286 34.131437,25.352105 31.84873,21.920413 30.5,18.142857 29.841273,16.297878 29.228122,14.423602 28.857143,12.5 28.626095,11.301969 28.695429,10.744156 28.5,8.8571428 z"
       id="path3991"
       inkscape:connector-curvature="0"
       sodipodi:nodetypes="csssssssssssssssssc" />
    <path
       sodipodi:nodetypes="csssssssssssssssssc"
       inkscape:connector-curvature="0"
       id="path4025"
       d="m 28.5,8.8571428 c -0.837934,0.7835784 -1.715083,2.3920932 -2.071429,3.7857142 -0.347998,1.360975 -0.108283,2.813704 0,4.214286 0.08358,1.081088 0.549135,2.131086 0.5,3.214286 -0.07562,1.667161 -1.214285,3.188266 -1.214285,4.857142 0,2.061553 1.325827,3.945818 1.5,6 0.159373,1.879625 -1.285028,3.427293 -0.142858,4.928572 0.89625,1.17804 1.7386,0.643901 3.071429,-10e-7 0.747902,-0.361319 1.170327,-2.389185 2,-2.42857 1.187471,-0.05637 1.212364,3.963964 2.071429,4.785714 1.09481,1.047254 2.51833,1.732024 3.928571,2.285714 2.725992,1.070281 5.844869,2.997403 8.571429,1.928571 C 47.144694,42.259848 47.688017,41.708051 47.5,41.285714 46.75772,39.618355 43.827322,41.069331 42.071429,40.571429 40.113098,40.016124 37.726335,39.696091 36.5,38.071429 34.702661,35.690295 36.019671,32.086843 35.214286,29.214286 34.131437,25.352105 31.84873,21.920413 30.5,18.142857 29.841273,16.297878 29.228122,14.423602 28.857143,12.5 28.626095,11.301969 28.695429,10.744156 28.5,8.8571428 z"
       style="fill:url(#radialGradient4033);stroke:none;fill-opacity:1;filter:url(#filter4343)" />
    <path
       style="fill:url(#radialGradient4053);fill-opacity:1;fill-rule:evenodd;stroke:none"
       d="m 47.426016,41.142069 c -0.321428,-0.661541 -1.046334,-0.792218 -3.243546,-0.584703 -0.683951,0.06459 -1.391094,0.09739 -1.571429,0.07288 -0.450857,-0.06128 -2.688461,-0.642663 -3.432426,-0.891821 -0.335358,-0.112313 -0.650666,-0.262165 -0.700686,-0.333003 -0.05002,-0.07084 -0.309608,-0.466298 -0.576864,-0.878798 -0.516904,-0.797823 -0.921512,-1.312902 -1.790107,-2.278865 l -0.539785,-0.600294 -0.04969,-2.721135 c -0.05474,-2.997445 -0.0639,-3.072654 -0.558828,-4.583975 -0.415739,-1.269517 -1.048669,-2.750427 -2.284897,-5.346128 -1.581646,-3.320971 -1.854745,-3.968884 -2.565654,-6.086883 -1.042562,-3.106084 -1.247537,-4.105997 -1.545119,-7.5374338 l -0.04129,-0.4761425 0.326622,-0.2247222 c 0.453359,-0.311919 1.130787,-0.6176303 1.680845,-0.7585352 0.689788,-0.1766987 1.32284,-0.064978 2.25,0.3970798 0.64941,0.3236384 3.054523,1.9718599 5.035715,3.4509689 2.348962,1.753678 4.260237,3.686121 5.328238,5.387248 0.608789,0.969689 0.778157,1.53504 1.025604,3.423495 0.267325,2.040148 0.398385,2.380358 1.661304,4.312465 0.928522,1.420522 1.189152,2.060969 1.425711,3.503401 0.05965,0.363738 0.08874,1.618085 0.09184,3.960885 l 0.0045,3.428571 0.209296,1.285714 c 0.173961,1.068646 0.209457,1.496753 0.210251,2.535715 7.14e-4,0.913254 -0.02703,1.329207 -0.102915,1.544018 l -0.10387,0.294019 -0.142857,-0.294019 -3e-6,0 z"
       id="path4045"
       inkscape:connector-curvature="0" />
    <path
       style="fill:none;stroke:#204a87;stroke-width:1px;stroke-linecap:butt;stroke-linejoin:miter;stroke-opacity:1;marker-start:none;filter:url(#filter3811)"
       d="m 44.642857,22.285714 0.214286,4.642857 -0.428572,6 -2,3.214286 -4.142857,4 0,0"
       id="path4055"
       inkscape:connector-curvature="0" />
  </g>
</svg>
