<?xml version="1.0" encoding="UTF-8" standalone="no"?>
<!-- Created with Inkscape (http://www.inkscape.org/) -->

<svg
   xmlns:dc="http://purl.org/dc/elements/1.1/"
   xmlns:cc="http://creativecommons.org/ns#"
   xmlns:rdf="http://www.w3.org/1999/02/22-rdf-syntax-ns#"
   xmlns:svg="http://www.w3.org/2000/svg"
   xmlns="http://www.w3.org/2000/svg"
   xmlns:sodipodi="http://sodipodi.sourceforge.net/DTD/sodipodi-0.dtd"
   xmlns:inkscape="http://www.inkscape.org/namespaces/inkscape"
   width="48px"
   height="48px"
   id="svg2989"
   version="1.1"
   inkscape:version="0.48.3.1 r9886"
   sodipodi:docname="psy.svg"
   inkscape:export-filename="/home/hoel/icones/psy16.png"
   inkscape:export-xdpi="30"
   inkscape:export-ydpi="30">
  <title
     id="title2986">psychiatry</title>
  <defs
     id="defs2991" />
  <sodipodi:namedview
     id="base"
     pagecolor="#ffffff"
     bordercolor="#666666"
     borderopacity="1.0"
     inkscape:pageopacity="0.0"
     inkscape:pageshadow="2"
     inkscape:zoom="9.8994949"
     inkscape:cx="12.992201"
     inkscape:cy="12.725109"
     inkscape:current-layer="layer1"
     showgrid="true"
     inkscape:grid-bbox="true"
     inkscape:document-units="px"
     inkscape:window-width="1857"
     inkscape:window-height="1056"
     inkscape:window-x="63"
     inkscape:window-y="24"
     inkscape:window-maximized="1" />
  <metadata
     id="metadata2994">
    <rdf:RDF>
      <cc:Work
         rdf:about="">
        <dc:format>image/svg+xml</dc:format>
        <dc:type
           rdf:resource="http://purl.org/dc/dcmitype/StillImage" />
        <dc:title>psychiatry</dc:title>
        <dc:creator>
          <cc:Agent>
            <dc:title>Hoel CHARBONNEL</dc:title>
          </cc:Agent>
        </dc:creator>
        <cc:license
           rdf:resource="http://creativecommons.org/licenses/by/3.0/" />
        <dc:subject>
          <rdf:Bag>
            <rdf:li>psychiatry</rdf:li>
          </rdf:Bag>
        </dc:subject>
      </cc:Work>
      <cc:License
         rdf:about="http://creativecommons.org/licenses/by/3.0/">
        <cc:permits
           rdf:resource="http://creativecommons.org/ns#Reproduction" />
        <cc:permits
           rdf:resource="http://creativecommons.org/ns#Distribution" />
        <cc:requires
           rdf:resource="http://creativecommons.org/ns#Notice" />
        <cc:requires
           rdf:resource="http://creativecommons.org/ns#Attribution" />
        <cc:permits
           rdf:resource="http://creativecommons.org/ns#DerivativeWorks" />
      </cc:License>
    </rdf:RDF>
  </metadata>
  <g
     id="layer1"
     inkscape:label="Layer 1"
     inkscape:groupmode="layer">
    <path
       style="fill:#edd400;stroke:#2e3436;stroke-width:1.21000004;stroke-linecap:butt;stroke-linejoin:miter;stroke-miterlimit:4;stroke-opacity:1;stroke-dasharray:none"
       d="m 30.221478,1.4391048 c 2.080088,0.1668717 3.775739,0.12168 7.200527,1.8907746 2.654022,1.3709505 4.730311,3.7214306 6.316253,6.1450173 1.884145,2.8792943 3.083745,6.2228553 3.537102,9.5720483 0.196366,1.450671 0.09385,2.978665 -0.378977,4.372416 -0.650981,1.918877 -2.353311,3.384635 -3.284451,5.19963 -0.876416,1.708325 -1.638266,3.483795 -2.147525,5.317805 -0.577917,2.081268 -1.015125,4.231031 -1.010601,6.381365 0.0039,1.832849 0.12388,3.746787 0.884276,5.435976 1.248547,2.773604 6.785525,4.340499 5.810953,7.20858 -2.557664,7.526969 -17.06263,11.532238 -24.128086,7.208577 -1.027368,-0.62869 0.115852,-2.376008 -0.378976,-3.427028 -0.408748,-0.86819 -1.429585,-1.356623 -2.0212,-2.127122 -0.792214,-1.031751 -1.307281,-2.228252 -2.0212,-3.308856 -0.319274,-0.483261 -0.785289,-0.890519 -1.010601,-1.418081 -0.364714,-0.853963 0.200255,-2.07766 -0.5053,-2.717989 -0.427413,-0.3879 -1.173625,-0.211872 -1.768552,-0.236346 -1.558778,-0.06412 -3.127705,0.431167 -4.674027,0.236346 C 9.4533918,47.022581 8.2369602,46.716994 7.2303166,46.108658 6.60456,45.730499 5.8944258,45.248654 5.7144161,44.572404 5.5145141,43.821424 6.3579242,43.100943 6.3460415,42.327109 6.3353241,41.629168 6.095305,40.918381 5.7144161,40.318161 5.5016284,39.982841 4.9045175,39.874642 4.8301408,39.490947 4.7393589,39.022619 5.2374072,38.638107 5.4617661,38.191039 5.0421112,37.889126 4.0466373,37.61944 3.8195403,37.009304 3.7053604,36.70254 3.9591456,36.371048 4.0721905,36.063917 4.2072054,35.697093 4.6126534,35.386917 4.5774906,35.000357 4.5388725,34.575811 4.1305241,34.248103 3.8195403,33.936796 3.3479977,33.464763 2.6852969,33.19276 2.1773147,32.755061 1.7168798,32.358332 1.031312,32.493543 0.91406416,31.455155 0.79606106,30.410076 1.5745825,30.133846 2.0509897,29.564378 2.6568345,28.840189 3.6691002,28.448445 4.1985155,27.673604 4.700507,26.938899 4.9735144,26.05791 5.082791,25.191963 5.1967615,24.288818 4.8580061,23.383014 4.8301408,22.473974 4.7890859,21.134647 4.797369,19.787664 4.9564659,18.456078 5.175701,16.621156 5.2984695,14.710078 6.0933913,13.0201 6.9786957,11.137973 8.3828036,9.4398256 10.009468,8.0568162 11.826465,6.5119834 14.073273,5.4258217 16.325722,4.5116137 19.700419,3.1419161 20.316206,2.7117657 23.937025,2.104023 25.017819,1.9226156 28.216636,1.2782696 30.221478,1.4391048 z"
       id="path3062"
       inkscape:connector-curvature="0"
       sodipodi:nodetypes="ssssssssssssssssssssssscssssssssssssssss" />
    <text
       xml:space="preserve"
       style="font-size:40px;font-style:normal;font-weight:normal;line-height:125%;letter-spacing:0px;word-spacing:0px;fill:#8f5902;fill-opacity:1;stroke:none;font-family:Times New Roman;-inkscape-font-specification:Times New Roman"
       x="10.571427"
       y="35.285717"
       id="text3064"
       sodipodi:linespacing="125%"><tspan
         sodipodi:role="line"
         id="tspan3066"
         x="10.571427"
         y="35.285717">Ψ</tspan></text>
  </g>
</svg>
