<?xml version="1.0" encoding="UTF-8" standalone="no"?>
<!-- Created with Inkscape (http://www.inkscape.org/) -->

<svg
   xmlns:dc="http://purl.org/dc/elements/1.1/"
   xmlns:cc="http://creativecommons.org/ns#"
   xmlns:rdf="http://www.w3.org/1999/02/22-rdf-syntax-ns#"
   xmlns:svg="http://www.w3.org/2000/svg"
   xmlns="http://www.w3.org/2000/svg"
   xmlns:xlink="http://www.w3.org/1999/xlink"
   xmlns:sodipodi="http://sodipodi.sourceforge.net/DTD/sodipodi-0.dtd"
   xmlns:inkscape="http://www.inkscape.org/namespaces/inkscape"
   width="48px"
   height="48px"
   id="svg3794"
   version="1.1"
   inkscape:version="0.48.3.1 r9886"
   sodipodi:docname="vertebra.svg"
   inkscape:export-filename="/home/hoel/icones/vertebra16.png"
   inkscape:export-xdpi="30"
   inkscape:export-ydpi="30">
  <title
     id="title3017">vertebra</title>
  <defs
     id="defs3796">
    <linearGradient
       inkscape:collect="always"
       id="linearGradient4590">
      <stop
         style="stop-color:#ff0000;stop-opacity:1;"
         offset="0"
         id="stop4592" />
      <stop
         style="stop-color:#ff0000;stop-opacity:0;"
         offset="1"
         id="stop4594" />
    </linearGradient>
    <linearGradient
       inkscape:collect="always"
       id="linearGradient4564">
      <stop
         style="stop-color:#fce94f;stop-opacity:1;"
         offset="0"
         id="stop4566" />
      <stop
         style="stop-color:#fce94f;stop-opacity:0;"
         offset="1"
         id="stop4568" />
    </linearGradient>
    <linearGradient
       inkscape:collect="always"
       id="linearGradient4546">
      <stop
         style="stop-color:#fce94f;stop-opacity:1;"
         offset="0"
         id="stop4548" />
      <stop
         style="stop-color:#fce94f;stop-opacity:0;"
         offset="1"
         id="stop4550" />
    </linearGradient>
    <radialGradient
       inkscape:collect="always"
       xlink:href="#linearGradient4546"
       id="radialGradient4552"
       cx="2.2417154"
       cy="18.182728"
       fx="2.2417154"
       fy="18.182728"
       r="21.867285"
       gradientTransform="matrix(-0.61056507,0.09616784,-0.04981146,-0.31625084,15.187352,21.62413)"
       gradientUnits="userSpaceOnUse" />
    <radialGradient
       inkscape:collect="always"
       xlink:href="#linearGradient4564"
       id="radialGradient4570"
       cx="16.378798"
       cy="33.419243"
       fx="16.378798"
       fy="33.419243"
       r="11.676718"
       gradientTransform="matrix(1.3499756,-0.63356201,0.264235,0.56302428,-14.982038,26.02037)"
       gradientUnits="userSpaceOnUse" />
    <radialGradient
       inkscape:collect="always"
       xlink:href="#linearGradient4590"
       id="radialGradient4596"
       cx="12.576399"
       cy="11.179939"
       fx="12.576399"
       fy="11.179939"
       r="14.091628"
       gradientTransform="matrix(1,0,0,0.43369176,0,6.3312917)"
       gradientUnits="userSpaceOnUse" />
    <radialGradient
       inkscape:collect="always"
       xlink:href="#linearGradient4590-6"
       id="radialGradient4596-8"
       cx="12.576399"
       cy="11.179939"
       fx="12.576399"
       fy="11.179939"
       r="14.091628"
       gradientTransform="matrix(1,0,0,0.43369176,0,6.3312917)"
       gradientUnits="userSpaceOnUse" />
    <linearGradient
       inkscape:collect="always"
       id="linearGradient4590-6">
      <stop
         style="stop-color:#ff0000;stop-opacity:1;"
         offset="0"
         id="stop4592-9" />
      <stop
         style="stop-color:#ff0000;stop-opacity:0;"
         offset="1"
         id="stop4594-6" />
    </linearGradient>
    <radialGradient
       r="14.091628"
       fy="11.179939"
       fx="12.576399"
       cy="11.179939"
       cx="12.576399"
       gradientTransform="matrix(1,0,0,0.43369176,0,6.3312917)"
       gradientUnits="userSpaceOnUse"
       id="radialGradient4613"
       xlink:href="#linearGradient4590-6"
       inkscape:collect="always" />
  </defs>
  <sodipodi:namedview
     id="base"
     pagecolor="#ffffff"
     bordercolor="#666666"
     borderopacity="1.0"
     inkscape:pageopacity="0.0"
     inkscape:pageshadow="2"
     inkscape:zoom="9.8994949"
     inkscape:cx="-16.084931"
     inkscape:cy="35.474666"
     inkscape:current-layer="layer1"
     showgrid="true"
     inkscape:grid-bbox="true"
     inkscape:document-units="px"
     inkscape:window-width="1857"
     inkscape:window-height="1056"
     inkscape:window-x="63"
     inkscape:window-y="24"
     inkscape:window-maximized="1" />
  <metadata
     id="metadata3799">
    <rdf:RDF>
      <cc:Work
         rdf:about="">
        <dc:format>image/svg+xml</dc:format>
        <dc:type
           rdf:resource="http://purl.org/dc/dcmitype/StillImage" />
        <dc:title>vertebra</dc:title>
        <cc:license
           rdf:resource="http://creativecommons.org/licenses/by/3.0/" />
        <dc:creator>
          <cc:Agent>
            <dc:title>Hoel CHARBONNEL</dc:title>
          </cc:Agent>
        </dc:creator>
        <dc:subject>
          <rdf:Bag>
            <rdf:li>Rheumatology vertebra</rdf:li>
          </rdf:Bag>
        </dc:subject>
      </cc:Work>
      <cc:License
         rdf:about="http://creativecommons.org/licenses/by/3.0/">
        <cc:permits
           rdf:resource="http://creativecommons.org/ns#Reproduction" />
        <cc:permits
           rdf:resource="http://creativecommons.org/ns#Distribution" />
        <cc:requires
           rdf:resource="http://creativecommons.org/ns#Notice" />
        <cc:requires
           rdf:resource="http://creativecommons.org/ns#Attribution" />
        <cc:permits
           rdf:resource="http://creativecommons.org/ns#DerivativeWorks" />
      </cc:License>
    </rdf:RDF>
  </metadata>
  <g
     id="layer1"
     inkscape:label="Layer 1"
     inkscape:groupmode="layer">
    <path
       style="fill:none;stroke:#000000;stroke-width:1;stroke-linecap:round;stroke-linejoin:round;stroke-miterlimit:4;stroke-opacity:1;stroke-dasharray:none"
       d="m 3.9541164,25.873329 4.7758671,-0.538631 5.7454035,-1.292716 7.07403,-1.50817 -0.179544,2.154527 -4.273144,2.190436 -5.386317,2.118618 -5.0272283,2.226343 -2.0827089,0.251362 z"
       id="path3867"
       inkscape:connector-curvature="0" />
    <path
       style="fill:none;stroke:#000000;stroke-width:1;stroke-linecap:round;stroke-linejoin:round;stroke-miterlimit:4;stroke-opacity:1;stroke-dasharray:none"
       d="m 21.082603,18.009306 c -0.304443,0.10508 -0.565095,0.406527 -0.646359,0.718176 -0.16412,0.6294 0.116768,1.333607 0.430906,1.903165 0.179856,0.326095 0.715115,0.425193 0.789993,0.789993 0.07777,0.378851 -0.13986,0.822575 -0.430905,1.077265 -0.882617,0.772355 -2.26978,0.592739 -3.411334,0.861809 -2.397169,0.565026 -4.793829,1.143304 -7.217665,1.579987 -1.8441906,0.332253 -3.6922223,0.82021 -5.5658599,0.789993 -0.4859963,-0.0078 -1.117311,0.115332 -1.4363503,-0.251361 C 2.9110991,24.692235 3.5694912,23.392996 3.4873046,22.354268 3.3569576,20.707007 3.2633984,19.04133 2.8768565,17.434767 2.549125,16.072634 1.76072,14.848721 1.4405047,13.484801 1.2698081,12.757741 0.77099594,11.877252 1.1891428,11.258458 1.8427589,10.291203 3.4094647,10.493735 4.5645687,10.32483 6.2941051,10.071926 8.0655894,10.36501 9.8072503,10.217105 12.219269,10.012275 14.65127,9.7681582 16.989005,9.1398424 c 1.006727,-0.270579 1.969895,-1.60243 2.908611,-1.1490809 0.630791,0.3046383 0.05415,1.5851865 0.610449,2.0108905 0.313834,0.240154 0.819175,0.185388 1.18499,0.0359 1.888613,-0.77175 2.204897,-4.237736 4.237236,-4.4167792 1.092277,-0.096227 1.864147,1.1818947 2.657249,1.9390738 0.677397,0.6467141 1.371907,1.3378785 1.759531,2.190436 0.422726,0.9297624 -0.02584,2.1651424 0.53863,3.0163364 0.157799,0.237952 0.465699,0.333485 0.718176,0.466814 1.456574,0.769197 3.034876,1.28188 4.560415,1.903165 2.612284,1.06387 5.40646,1.739784 7.864023,3.124064 0.483907,0.272572 1.081316,0.508151 1.328624,1.005445 0.772832,1.554028 0.897027,3.720968 0,5.206773 -0.265655,0.44002 -0.852719,0.670876 -1.364533,0.718176 -1.048043,0.09686 -2.069334,-0.474331 -3.016338,-0.93363 -1.595233,-0.77369 -2.659607,-2.591335 -4.38087,-3.016337 -0.784111,-0.193606 -1.918362,-0.356649 -2.405889,0.287272 -0.511969,0.676204 0.497649,1.671695 0.394997,2.513615 -0.05973,0.48989 -0.299162,0.954985 -0.57454,1.364532 -0.188908,0.280946 -0.392693,0.811337 -0.718176,0.718176 -0.815085,-0.233296 -0.119853,-1.762127 -0.57454,-2.477706 -0.612564,-0.964049 -1.690556,-1.571429 -2.693159,-2.118617 -0.611376,-0.33367 -1.28809,-0.566966 -1.974983,-0.682268 -0.932549,-0.156539 -2.034551,0.500563 -2.836793,0 -0.531366,-0.331549 -0.381489,-1.246381 -0.825902,-1.687712 -0.490035,-0.486637 -1.209707,-0.686584 -1.867256,-0.897719 -0.462789,-0.148598 -0.976896,-0.409952 -1.436354,-0.25136 z"
       id="path4379"
       inkscape:connector-curvature="0"
       sodipodi:nodetypes="ssssssssssssssssssssssssssssssssssssssssss" />
    <path
       style="fill:none;stroke:#000000;stroke-width:1;stroke-linecap:round;stroke-linejoin:round;stroke-opacity:1;stroke-miterlimit:4;stroke-dasharray:none"
       d="M 1.2609581,5.979867 C 2.0443806,5.44985 8.2057476,5.8538484 11.674503,5.6925967 c 2.5642,-0.119202 5.122193,-0.3477388 7.684479,-0.5027228 0.430781,-0.026057 1.019844,-0.4061738 1.292715,-0.071818 0.594756,0.7287717 -0.0609,2.0561465 -0.718175,2.7290677 -1.810578,1.8536611 -4.911186,1.7401426 -7.469026,2.1545254 -2.341386,0.379317 -4.7472843,0.07788 -7.1099369,0.287271 -1.2275336,0.108791 -2.44681,0.703463 -3.6626953,0.502723 C 1.5334197,10.76548 1.3579612,10.704166 1.2609581,10.576189 0.87809893,10.071064 0.920617,9.3424791 0.90187052,8.7089335 0.87472616,7.7918053 0.50100849,6.4940033 1.2609581,5.9798666 z"
       id="path4381"
       inkscape:connector-curvature="0"
       sodipodi:nodetypes="sssssssssss" />
    <path
       style="fill:none;stroke:#000000;stroke-width:1;stroke-linecap:round;stroke-linejoin:round;stroke-opacity:1;stroke-miterlimit:4;stroke-dasharray:none"
       d="m 14.906293,45.407704 c -0.751438,0.165336 -1.538057,0.0488 -2.298162,-0.215452 C 10.877485,44.590596 10.862693,43.15791 10.022699,41.529557 9.0851283,39.712048 8.517837,37.689093 7.3654498,35.999603 6.5732356,34.838155 4.8434958,34.272898 4.4927477,32.911449 4.3696242,32.433535 4.4883396,31.808914 4.8518354,31.475098 5.405492,30.966644 6.3512717,31.307496 7.0781803,31.116011 c 1.5308435,-0.40326 2.9816167,-1.066957 4.4526877,-1.651805 1.764288,-0.701419 3.521687,-1.424542 5.242681,-2.226343 1.436285,-0.669157 2.657097,-2.036864 4.237235,-2.154528 0.603948,-0.04498 1.166901,0.812945 1.723622,0.574541 0.826922,-0.354111 0.712239,-1.655435 1.14908,-2.441797 0.470793,-0.847475 0.717082,-1.99992 1.579987,-2.441798 0.853381,-0.436999 1.933185,-0.0475 2.872702,0.143637 0.749577,0.152495 1.496088,0.400663 2.154527,0.789994 0.847122,0.500897 1.704735,1.104546 2.226345,1.939073 0.341642,0.546596 0.352482,1.240428 0.502722,1.867256 0.108336,0.452013 -0.09019,1.093291 0.287272,1.364534 0.665532,0.478247 1.63139,-0.40932 2.441796,-0.287271 1.112847,0.167596 2.041969,0.94979 3.088155,1.364533 2.477526,0.982178 6.001007,0.481999 7.540843,2.65725 0.677743,0.957414 0.509795,2.462612 0,3.51906 -0.518323,1.074122 -1.635682,1.971984 -2.800885,2.226346 -1.75849,0.383875 -3.646957,-2.125366 -5.242682,-1.292718 -0.886832,0.462748 -0.401711,2.063162 -1.077263,2.800886 -0.845965,0.923822 -2.132463,1.496391 -3.375424,1.651803 -1.043565,0.130475 -2.252907,-0.0073 -3.088155,-0.646357 -1.173392,-0.897795 -1.565256,-2.541319 -2.010893,-3.949966 -0.153172,-0.484177 0.162591,-1.169095 -0.215452,-1.508168 -0.53493,-0.47979 -1.50655,-0.382426 -2.154527,-0.07182 -0.431745,0.206953 -0.802013,0.674046 -0.86181,1.14908 -0.132708,1.054214 1.1423,1.884898 1.220898,2.94452 0.0292,0.393734 -0.07275,0.817634 -0.28727,1.149082 -0.778066,1.202126 -2.149582,1.917111 -3.375426,2.657248 -1.660475,1.002559 -3.587844,1.486257 -5.314498,2.36998 -1.059957,0.542499 -1.925252,1.539573 -3.088155,1.795442 z"
       id="path4383"
       inkscape:connector-curvature="0"
       sodipodi:nodetypes="ssssssssssssssssssssssssssssssssssss" />
    <path
       style="fill:none;stroke:#000000;stroke-width:1;stroke-linecap:round;stroke-linejoin:round;stroke-opacity:1;stroke-miterlimit:4;stroke-dasharray:none"
       d="m 17.563543,28.961484 c 0,0 1.607976,-0.598754 2.441796,-0.789993 0.848064,-0.194506 1.813493,0.04236 2.585432,-0.359088 0.841553,-0.437643 1.045317,-1.764999 1.939074,-2.082709 0.819825,-0.291428 1.944105,-0.228913 2.585432,0.359087 0.633514,0.580834 0.263635,1.712339 0.574541,2.513615 0.298602,0.769568 1.276295,1.33092 1.220897,2.154527 -0.05044,0.75001 -0.87626,1.223904 -1.364533,1.795438 -0.516899,0.605041 -0.941865,1.364113 -1.651803,1.723621 -0.818559,0.414514 -1.884965,-5.66e-4 -2.729067,0.359089 -0.423056,0.180255 -0.794831,0.498907 -1.077263,0.86181 -0.177656,0.228274 -0.359088,0.789994 -0.359088,0.789994 l 0,0"
       id="path4385"
       inkscape:connector-curvature="0"
       sodipodi:nodetypes="csssssssssssc" />
    <path
       style="fill:none;stroke:#000000;stroke-width:1;stroke-linecap:round;stroke-linejoin:round;stroke-opacity:1;stroke-miterlimit:4;stroke-dasharray:none"
       d="m 22.303502,12.443447 c 0,0 1.910358,0.287273 2.872701,0.28727 0.240586,0 0.510518,-0.193311 0.718176,-0.07182 0.721716,0.422242 0.85474,1.475695 1.005446,2.298162 0.172804,0.943062 0.530077,2.190541 -0.143635,2.872701 -0.809021,0.819165 -2.295943,0.208281 -3.447244,0.215452 -0.958745,0.0059 -1.917376,-0.06254 -2.872702,-0.143636 -0.600613,-0.05098 -1.246656,-0.464797 -1.795438,-0.215451 -0.580335,0.263681 -1.077263,1.579986 -1.077263,1.579986"
       id="path4387"
       inkscape:connector-curvature="0"
       sodipodi:nodetypes="csssssssc" />
    <path
       style="fill:none;stroke:#000000;stroke-width:1;stroke-linecap:round;stroke-linejoin:round;stroke-opacity:1;stroke-miterlimit:4;stroke-dasharray:none"
       d="m 30.777973,12.587082 c 0,0 -0.07077,0.690428 -0.287271,0.933628 -0.434762,0.488366 -1.478423,0.218135 -1.795438,0.789993 -0.80923,1.459763 0.718175,4.955411 0.718175,4.955411"
       id="path4389"
       inkscape:connector-curvature="0"
       sodipodi:nodetypes="cssc" />
    <path
       style="fill:none;stroke:#000000;stroke-width:1;stroke-linecap:round;stroke-linejoin:round;stroke-opacity:1;stroke-miterlimit:4;stroke-dasharray:none"
       d="m 29.197987,30.254199 c 0,0 1.776551,-1.026031 2.58543,-1.651803 0.361743,-0.279854 0.839736,-0.507346 1.005446,-0.933628 0.321981,-0.828275 -0.215452,-2.65725 -0.215452,-2.65725"
       id="path4391"
       inkscape:connector-curvature="0"
       sodipodi:nodetypes="cssc" />
    <path
       inkscape:connector-curvature="0"
       id="path4536"
       d="M 4.1333409,25.165215 C 3.8608108,25.091242 3.8116864,24.674997 3.9450654,23.569905 4.0471783,22.723864 4.0405468,22.263692 3.904981,20.788382 3.6925476,18.476551 3.4618198,17.326567 2.940581,15.981658 2.104336,13.823964 1.6223379,12.27695 1.6536903,11.851271 l 0.029962,-0.4068 0.6565991,-0.06537 c 0.3611296,-0.03595 1.22481,-0.179589 1.9192899,-0.319192 1.1218591,-0.225514 1.5950532,-0.259795 4.2426407,-0.307365 1.8289112,-0.03286 3.4481692,-0.115399 4.1921332,-0.213686 4.328389,-0.5718328 5.38108,-0.8040764 6.429308,-1.4184255 l 0.591252,-0.3465237 0,0.4613842 c 0,0.936862 0.490996,1.451562 1.384712,1.451562 1.085747,0 1.88984,-0.686638 3.018028,-2.5771823 1.029959,-1.7259394 1.581933,-2.1579669 2.31354,-1.8107969 0.458725,0.2176796 2.989819,2.9017494 3.288546,3.487301 0.1624,0.3183302 0.247354,0.7244092 0.304193,1.4540472 0.04338,0.556802 0.108171,1.148738 0.143989,1.315413 0.09256,0.430728 -0.102719,0.630876 -0.789061,0.808728 -0.810147,0.209934 -0.942525,0.296501 -1.201405,0.78564 -0.356148,0.672923 -0.313808,2.002905 0.111642,3.506902 0.446123,1.577076 0.6888,2.061534 1.053627,2.103366 0.348931,0.04001 0.57473,-0.133093 0.57473,-0.440604 0,-0.127484 -0.160679,-0.711973 -0.357065,-1.298863 -0.431854,-1.290576 -0.630895,-2.515419 -0.495851,-3.051328 0.09977,-0.395907 0.125585,-0.411928 1.045655,-0.648824 0.244902,-0.06306 0.574881,-0.244253 0.733286,-0.402657 l 0.288008,-0.288009 0.933466,0.437412 c 1.078426,0.505338 4.838106,1.972409 6.717496,2.621245 2.969022,1.025017 5.488119,2.174354 5.938277,2.709337 0.864278,1.027134 0.894281,3.908932 0.05052,4.85249 -0.27926,0.312291 -0.322596,0.325777 -1.03191,0.321137 -1.286894,-0.0084 -2.602841,-0.687867 -4.477973,-2.312062 -1.222761,-1.059127 -2.095917,-1.51288 -3.202785,-1.66439 -0.861292,-0.117896 -1.258623,-0.07233 -1.820642,0.208796 -0.74197,0.371137 -0.879004,1.122027 -0.429619,2.354159 l 0.27801,0.762258 -0.183784,0.479564 -0.183783,0.479564 -0.165898,-0.555584 C 33.24681,23.299077 32.778508,22.665539 31.753296,21.889433 30.272025,20.768081 28.439329,20.157231 26.508217,20.14121 l -1.136356,-0.0094 -0.152916,-0.525188 c -0.0841,-0.288854 -0.197776,-0.552914 -0.252604,-0.5868 -0.255822,-0.158107 -0.04179,-0.251718 0.575526,-0.251718 1.632184,0 2.319991,-0.925522 2.082184,-2.801807 -0.364437,-2.875383 -0.981581,-3.972059 -2.156907,-3.832859 -0.436066,0.05165 -1.505082,-0.02229 -2.836591,-0.196186 -0.394413,-0.05151 -0.502849,-0.02665 -0.68702,0.157523 -0.235629,0.235629 -0.210706,0.564941 0.05891,0.778381 0.17654,0.139757 1.790553,0.344384 2.950773,0.374104 0.820483,0.02102 0.848498,0.02987 0.998185,0.315563 0.202185,0.385883 0.630098,2.496004 0.631452,3.113806 8.08e-4,0.387512 -0.05134,0.536819 -0.260912,0.746386 -0.258775,0.258776 -0.275108,0.261174 -1.338452,0.196507 -0.592064,-0.036 -1.852791,-0.108029 -2.801615,-0.160054 -0.948825,-0.05202 -2.02736,-0.170506 -2.396745,-0.263293 -0.817647,-0.205386 -1.269892,-0.137849 -1.719325,0.256758 -0.351345,0.308485 -0.831159,1.108566 -0.983621,1.640171 -0.143462,0.500223 0.243426,0.820396 0.754404,0.624315 0.0872,-0.03346 0.304135,-0.356581 0.482082,-0.718043 0.376753,-0.765294 0.586426,-0.899998 1.160343,-0.745459 l 0.404223,0.108846 0.0032,0.733001 c 0.0024,0.560056 0.06249,0.864085 0.254611,1.288584 0.238664,0.527336 0.711987,1.111168 0.900842,1.111168 0.166127,0 0.08625,0.268717 -0.140044,0.471111 -0.164114,0.146783 -0.802833,0.32302 -2.298097,0.634099 -1.138947,0.23695 -3.593617,0.769504 -5.454824,1.183453 -1.861206,0.413951 -3.724937,0.818826 -4.141625,0.899724 -1.3596649,0.263972 -4.5235714,0.576433 -4.8739171,0.481339 l -10e-7,0 z"
       style="fill:#c4a000;fill-opacity:1;fill-rule:evenodd;stroke:none" />
    <path
       style="fill:url(#radialGradient4552);fill-opacity:1;fill-rule:evenodd;stroke:none"
       d="M 4.1333409,25.165215 C 3.8608108,25.091242 3.8116864,24.674997 3.9450654,23.569905 4.0471783,22.723864 4.0405468,22.263692 3.904981,20.788382 3.6925476,18.476551 3.4618198,17.326567 2.940581,15.981658 2.104336,13.823964 1.6223379,12.27695 1.6536903,11.851271 l 0.029962,-0.4068 0.6565991,-0.06537 c 0.3611296,-0.03595 1.22481,-0.179589 1.9192899,-0.319192 1.1218591,-0.225514 1.5950532,-0.259795 4.2426407,-0.307365 1.8289112,-0.03286 3.4481692,-0.115399 4.1921332,-0.213686 4.328389,-0.5718328 5.38108,-0.8040764 6.429308,-1.4184255 l 0.591252,-0.3465237 0,0.4613842 c 0,0.936862 0.490996,1.451562 1.384712,1.451562 1.085747,0 1.88984,-0.686638 3.018028,-2.5771823 1.029959,-1.7259394 1.581933,-2.1579669 2.31354,-1.8107969 0.458725,0.2176796 2.989819,2.9017494 3.288546,3.487301 0.1624,0.3183302 0.247354,0.7244092 0.304193,1.4540472 0.04338,0.556802 0.108171,1.148738 0.143989,1.315413 0.09256,0.430728 -0.102719,0.630876 -0.789061,0.808728 -0.810147,0.209934 -0.942525,0.296501 -1.201405,0.78564 -0.356148,0.672923 -0.313808,2.002905 0.111642,3.506902 0.446123,1.577076 0.6888,2.061534 1.053627,2.103366 0.348931,0.04001 0.57473,-0.133093 0.57473,-0.440604 0,-0.127484 -0.160679,-0.711973 -0.357065,-1.298863 -0.431854,-1.290576 -0.630895,-2.515419 -0.495851,-3.051328 0.09977,-0.395907 0.125585,-0.411928 1.045655,-0.648824 0.244902,-0.06306 0.574881,-0.244253 0.733286,-0.402657 l 0.288008,-0.288009 0.933466,0.437412 c 1.078426,0.505338 4.838106,1.972409 6.717496,2.621245 2.969022,1.025017 5.488119,2.174354 5.938277,2.709337 0.864278,1.027134 0.894281,3.908932 0.05052,4.85249 -0.27926,0.312291 -0.322596,0.325777 -1.03191,0.321137 -1.286894,-0.0084 -2.602841,-0.687867 -4.477973,-2.312062 -1.222761,-1.059127 -2.095917,-1.51288 -3.202785,-1.66439 -0.861292,-0.117896 -1.258623,-0.07233 -1.820642,0.208796 -0.74197,0.371137 -0.879004,1.122027 -0.429619,2.354159 l 0.27801,0.762258 -0.183784,0.479564 -0.183783,0.479564 -0.165898,-0.555584 C 33.24681,23.299077 32.778508,22.665539 31.753296,21.889433 30.272025,20.768081 28.439329,20.157231 26.508217,20.14121 l -1.136356,-0.0094 -0.152916,-0.525188 c -0.0841,-0.288854 -0.197776,-0.552914 -0.252604,-0.5868 -0.255822,-0.158107 -0.04179,-0.251718 0.575526,-0.251718 1.632184,0 2.319991,-0.925522 2.082184,-2.801807 -0.364437,-2.875383 -0.981581,-3.972059 -2.156907,-3.832859 -0.436066,0.05165 -1.505082,-0.02229 -2.836591,-0.196186 -0.394413,-0.05151 -0.502849,-0.02665 -0.68702,0.157523 -0.235629,0.235629 -0.210706,0.564941 0.05891,0.778381 0.17654,0.139757 1.790553,0.344384 2.950773,0.374104 0.820483,0.02102 0.848498,0.02987 0.998185,0.315563 0.202185,0.385883 0.630098,2.496004 0.631452,3.113806 8.08e-4,0.387512 -0.05134,0.536819 -0.260912,0.746386 -0.258775,0.258776 -0.275108,0.261174 -1.338452,0.196507 -0.592064,-0.036 -1.852791,-0.108029 -2.801615,-0.160054 -0.948825,-0.05202 -2.02736,-0.170506 -2.396745,-0.263293 -0.817647,-0.205386 -1.269892,-0.137849 -1.719325,0.256758 -0.351345,0.308485 -0.831159,1.108566 -0.983621,1.640171 -0.143462,0.500223 0.243426,0.820396 0.754404,0.624315 0.0872,-0.03346 0.304135,-0.356581 0.482082,-0.718043 0.376753,-0.765294 0.586426,-0.899998 1.160343,-0.745459 l 0.404223,0.108846 0.0032,0.733001 c 0.0024,0.560056 0.06249,0.864085 0.254611,1.288584 0.238664,0.527336 0.711987,1.111168 0.900842,1.111168 0.166127,0 0.08625,0.268717 -0.140044,0.471111 -0.164114,0.146783 -0.802833,0.32302 -2.298097,0.634099 -1.138947,0.23695 -3.593617,0.769504 -5.454824,1.183453 -1.861206,0.413951 -3.724937,0.818826 -4.141625,0.899724 -1.3596649,0.263972 -4.5235714,0.576433 -4.8739171,0.481339 l -10e-7,0 z"
       id="path4412"
       inkscape:connector-curvature="0" />
    <path
       inkscape:connector-curvature="0"
       id="path4554"
       d="m 13.249899,44.793567 c -0.250013,-0.07475 -0.574374,-0.184944 -0.720802,-0.24487 -0.359741,-0.147223 -0.94726,-0.7666 -1.10334,-1.163168 C 11.309892,43.091141 10.394652,41.018316 9.0909631,38.097718 8.304544,36.335937 7.791229,35.532999 7.023216,34.863305 5.1489551,33.228984 4.887497,32.894452 5.0184481,32.298236 c 0.071706,-0.326474 0.1476407,-0.358593 1.0593676,-0.448093 0.9901723,-0.0972 2.3847487,-0.557435 5.5053313,-1.816856 3.982243,-1.607174 5.622676,-2.354091 6.760395,-3.078121 1.061131,-0.675289 2.324065,-1.318052 2.589781,-1.318052 0.08992,0 0.409399,0.135548 0.709956,0.301216 0.613515,0.338172 0.973313,0.376639 1.410116,0.150759 0.163916,-0.08476 0.298029,-0.12828 0.298029,-0.0967 0,0.126942 -0.828654,1.168697 -1.038248,1.305248 -0.130466,0.085 -0.710848,0.189764 -1.386118,0.250207 -1.173421,0.105033 -3.041034,0.601816 -3.573102,0.95044 -0.305468,0.20015 -0.383703,0.503827 -0.198076,0.768847 0.199834,0.285304 0.37753,0.267266 1.787787,-0.181475 0.894715,-0.284697 1.492605,-0.409174 2.213728,-0.460887 1.597431,-0.114555 1.973968,-0.318354 2.802471,-1.516827 0.562522,-0.813715 0.811524,-0.965749 1.581704,-0.965749 0.492227,0 1.022752,0.187224 1.226412,0.432805 0.07346,0.08858 0.171792,0.561555 0.218518,1.051054 0.101851,1.06702 0.198533,1.34005 0.708655,2.001264 0.214567,0.278119 0.459848,0.640067 0.545067,0.804328 0.141136,0.272037 0.139502,0.323002 -0.01832,0.571802 -0.313296,0.493895 -1.558656,1.711694 -1.959615,1.916249 -0.216197,0.110295 -0.51638,0.378842 -0.667075,0.596771 l -0.273988,0.396234 -0.815042,0.0038 c -1.136635,0.0053 -1.773446,0.216619 -2.39421,0.794318 -0.848388,0.789534 -1.121745,1.674079 -0.619127,2.003408 0.335511,0.219835 0.512776,0.117403 0.848429,-0.490253 0.345523,-0.625526 0.481232,-0.772141 0.923608,-0.997825 0.463886,-0.236656 2.005834,-0.286794 2.005834,-0.06522 0,0.07118 0.250013,0.567038 0.555584,1.101899 0.599816,1.049896 0.666416,1.383519 0.391734,1.962366 -0.482055,1.015854 -2.935965,2.582459 -5.998081,3.829244 -2.076637,0.845533 -2.681149,1.147329 -3.636549,1.815506 -0.416688,0.291419 -0.960833,0.632684 -1.209212,0.758367 -0.552874,0.279762 -1.495907,0.353111 -2.124291,0.165227 l 0,0 z"
       style="fill:#c4a000;fill-opacity:1;fill-rule:evenodd;stroke:none" />
    <path
       style="fill:url(#radialGradient4570);fill-opacity:1;fill-rule:evenodd;stroke:none"
       d="m 13.249899,44.793567 c -0.250013,-0.07475 -0.574374,-0.184944 -0.720802,-0.24487 -0.359741,-0.147223 -0.94726,-0.7666 -1.10334,-1.163168 C 11.309892,43.091141 10.394652,41.018316 9.0909631,38.097718 8.304544,36.335937 7.791229,35.532999 7.023216,34.863305 5.1489551,33.228984 4.887497,32.894452 5.0184481,32.298236 c 0.071706,-0.326474 0.1476407,-0.358593 1.0593676,-0.448093 0.9901723,-0.0972 2.3847487,-0.557435 5.5053313,-1.816856 3.982243,-1.607174 5.622676,-2.354091 6.760395,-3.078121 1.061131,-0.675289 2.324065,-1.318052 2.589781,-1.318052 0.08992,0 0.409399,0.135548 0.709956,0.301216 0.613515,0.338172 0.973313,0.376639 1.410116,0.150759 0.163916,-0.08476 0.298029,-0.12828 0.298029,-0.0967 0,0.126942 -0.828654,1.168697 -1.038248,1.305248 -0.130466,0.085 -0.710848,0.189764 -1.386118,0.250207 -1.173421,0.105033 -3.041034,0.601816 -3.573102,0.95044 -0.305468,0.20015 -0.383703,0.503827 -0.198076,0.768847 0.199834,0.285304 0.37753,0.267266 1.787787,-0.181475 0.894715,-0.284697 1.492605,-0.409174 2.213728,-0.460887 1.597431,-0.114555 1.973968,-0.318354 2.802471,-1.516827 0.562522,-0.813715 0.811524,-0.965749 1.581704,-0.965749 0.492227,0 1.022752,0.187224 1.226412,0.432805 0.07346,0.08858 0.171792,0.561555 0.218518,1.051054 0.101851,1.06702 0.198533,1.34005 0.708655,2.001264 0.214567,0.278119 0.459848,0.640067 0.545067,0.804328 0.141136,0.272037 0.139502,0.323002 -0.01832,0.571802 -0.313296,0.493895 -1.558656,1.711694 -1.959615,1.916249 -0.216197,0.110295 -0.51638,0.378842 -0.667075,0.596771 l -0.273988,0.396234 -0.815042,0.0038 c -1.136635,0.0053 -1.773446,0.216619 -2.39421,0.794318 -0.848388,0.789534 -1.121745,1.674079 -0.619127,2.003408 0.335511,0.219835 0.512776,0.117403 0.848429,-0.490253 0.345523,-0.625526 0.481232,-0.772141 0.923608,-0.997825 0.463886,-0.236656 2.005834,-0.286794 2.005834,-0.06522 0,0.07118 0.250013,0.567038 0.555584,1.101899 0.599816,1.049896 0.666416,1.383519 0.391734,1.962366 -0.482055,1.015854 -2.935965,2.582459 -5.998081,3.829244 -2.076637,0.845533 -2.681149,1.147329 -3.636549,1.815506 -0.416688,0.291419 -0.960833,0.632684 -1.209212,0.758367 -0.552874,0.279762 -1.495907,0.353111 -2.124291,0.165227 l 0,0 z"
       id="path4414"
       inkscape:connector-curvature="0" />
    <path
       style="fill:#c4a000;fill-opacity:1;fill-rule:evenodd;stroke:none"
       d="M 28.664926,29.063803 C 28.200155,28.445522 28.157291,28.313428 28.046074,27.156685 27.967004,26.33429 27.807453,25.95166 27.40098,25.609635 26.573432,24.9133 24.561076,24.847959 23.846948,25.494236 c -0.230586,0.208678 -0.239391,0.15575 -0.04708,-0.283009 0.07997,-0.18245 0.2388,-0.649925 0.35296,-1.038834 0.114159,-0.388908 0.423749,-1.137576 0.687978,-1.663706 l 0.480417,-0.956599 0.555584,-0.0078 c 0.305571,-0.0043 0.919238,-0.04384 1.363705,-0.08783 0.722844,-0.07155 0.886022,-0.05324 1.546319,0.173515 1.441805,0.495131 3.161726,1.685484 3.453657,2.390268 0.110428,0.266596 0.103901,0.358057 -0.04537,0.635853 -0.162796,0.302957 -0.163714,0.380451 -0.01384,1.169001 0.199907,1.051812 0.201951,1.425208 0.0093,1.700246 -0.157745,0.225213 -1.2363,1.002926 -2.392827,1.725395 l -0.67525,0.421821 -0.457574,-0.608709 0,0 z"
       id="path4416"
       inkscape:connector-curvature="0" />
    <path
       style="fill:#c4a000;fill-opacity:1;fill-rule:evenodd;stroke:none"
       d="m 32.056186,38.778681 c -0.99646,-0.344142 -1.580526,-1.131387 -2.196578,-2.960703 -0.24252,-0.720145 -0.346366,-1.211368 -0.346631,-1.639669 -4.71e-4,-0.76241 -0.232576,-1.177987 -0.797007,-1.427014 l -0.409531,-0.180684 0.497757,-0.526305 c 0.273766,-0.289467 0.52639,-0.656261 0.561387,-0.815097 0.035,-0.158837 0.07718,-0.335293 0.09373,-0.392126 0.01655,-0.05683 0.433234,-0.349538 0.925954,-0.650455 2.058505,-1.257183 2.965139,-2.035006 2.966291,-2.54485 3.06e-4,-0.135409 0.0738,-0.157317 0.386877,-0.115324 0.234164,0.03141 0.692473,-0.0321 1.162803,-0.161135 0.426966,-0.117137 0.883667,-0.212976 1.01489,-0.212976 0.131223,0 0.831624,0.292509 1.556448,0.65002 1.627915,0.80295 2.23909,0.994237 4.395748,1.375789 2.507136,0.443558 3.468447,0.813227 4.096658,1.575356 1.143685,1.387488 0.211392,3.946859 -1.767765,4.852947 -0.764224,0.349873 -1.148517,0.282118 -2.6846,-0.473326 -1.832528,-0.901237 -2.685082,-0.998876 -3.452303,-0.39538 -0.386032,0.303653 -0.533731,0.648764 -0.710101,1.65921 -0.13897,0.796171 -0.197539,0.937651 -0.528452,1.276537 -0.416057,0.426082 -1.565009,1.03123 -2.257643,1.18909 -0.722065,0.164569 -1.902858,0.125065 -2.507931,-0.08391 l 0,0 z"
       id="path4418"
       inkscape:connector-curvature="0" />
    <path
       style="fill:#eeeeec;fill-opacity:1;fill-rule:evenodd;stroke:none"
       d="M 5.0212563,30.263272 C 4.8697559,29.17097 4.5694107,26.404741 4.5990911,26.375061 c 0.018192,-0.01819 0.5969957,-0.07786 1.2862305,-0.132598 0.6892349,-0.05474 1.6422577,-0.164286 2.1178285,-0.243443 1.3006757,-0.216492 6.1339749,-1.215577 8.3184999,-1.719506 1.060678,-0.244678 2.178517,-0.474071 2.484088,-0.509761 0.839538,-0.09806 1.7464,-0.272009 1.944543,-0.372999 0.198734,-0.10129 0.226011,0.04965 0.111997,0.619719 -0.05809,0.290455 -0.165013,0.373277 -1.035406,0.802024 -0.533845,0.262967 -1.447924,0.733369 -2.031287,1.045337 -0.583363,0.311968 -2.229494,1.024438 -3.65807,1.583266 -1.428575,0.558828 -3.657233,1.486816 -4.9525721,2.062195 -2.2179349,0.985189 -2.4060975,1.050277 -3.2293255,1.117073 l -0.8741627,0.07093 -0.060198,-0.434025 z"
       id="path4428"
       inkscape:connector-curvature="0" />
    <path
       style="fill:#eeeeec;fill-opacity:1;fill-rule:evenodd;stroke:none"
       d="M 1.5850589,10.005004 C 1.4821564,9.7440194 1.3068106,7.0558313 1.3749745,6.7842449 1.4957639,6.3029813 1.527421,6.3002291 7.7445674,6.2304872 12.167301,6.1808744 14.321527,6.1125456 16.532894,5.9517348 19.273533,5.7524353 19.690228,5.7088477 20.14419,5.5739823 20.409975,5.4950212 20.374869,6.041514 20.076309,6.6306961 19.781044,7.2133716 19.700429,7.2782037 19.07498,7.4359828 18.806375,7.5037424 18.235963,7.784111 17.807398,8.0590243 16.940807,8.6149188 16.240326,8.8225641 14.058021,9.1704607 11.87776,9.5180312 9.8936907,9.6766901 7.7221864,9.6771143 5.6331387,9.6775224 2.7103822,9.8843866 2.0378724,10.079433 c -0.1940876,0.05629 -0.3596875,0.102348 -0.3679997,0.102348 -0.00831,0 -0.046479,-0.07955 -0.084814,-0.176777 z"
       id="path4430"
       inkscape:connector-curvature="0" />
    <path
       sodipodi:type="arc"
       style="fill:url(#radialGradient4596);fill-opacity:1;fill-rule:evenodd;stroke:none"
       id="path4588"
       sodipodi:cx="12.576399"
       sodipodi:cy="11.179939"
       sodipodi:rx="14.091628"
       sodipodi:ry="6.111423"
       d="m 26.668027,11.179939 a 14.091628,6.111423 0 1 1 -28.1832562,0 14.091628,6.111423 0 1 1 28.1832562,0 z"
       transform="matrix(0.79827653,-0.08069063,0.06403936,0.68700321,0.15420027,1.3826097)" />
    <path
       sodipodi:type="arc"
       style="fill:url(#radialGradient4613);fill-opacity:1;fill-rule:evenodd;stroke:none"
       id="path4588-4"
       sodipodi:cx="12.576399"
       sodipodi:cy="11.179939"
       sodipodi:rx="14.091628"
       sodipodi:ry="6.111423"
       d="m 26.668027,11.179939 a 14.091628,6.111423 0 1 1 -28.1832562,0 14.091628,6.111423 0 1 1 28.1832562,0 z"
       transform="matrix(0.67708786,-0.14524522,0.09906605,0.5788326,2.4958222,21.799917)" />
  </g>
</svg>
